<svg width="24" height="24" viewBox="0 0 24 24" fill="none" xmlns="http://www.w3.org/2000/svg">
<path fill-rule="evenodd" clip-rule="evenodd" d="M12 24C18.6274 24 24 18.6274 24 12C24 5.37258 18.6274 0 12 0C5.37258 0 0 5.37258 0 12C0 18.6274 5.37258 24 12 24ZM11.9993 4.5C9.61763 4.5 7.6875 6.43013 7.6875 8.81175C7.6875 11.1949 9.61763 13.125 11.9993 13.125C14.3813 13.125 16.3125 11.1949 16.3125 8.81175C16.3125 6.43013 14.3811 4.5 11.9993 4.5ZM19.3125 19.1511C17.4551 20.985 14.8781 22.125 12.0308 22.125C9.15112 22.125 6.54919 20.9565 4.6875 19.0856V17.85C4.6875 16.2769 5.99644 15 7.6125 15H16.3875C18.0036 15 19.3125 16.2769 19.3125 17.85V19.1511Z" fill="#C1C7D0"/>
</svg>
