<svg width="46" height="46" viewBox="0 0 46 46" fill="none" xmlns="http://www.w3.org/2000/svg">
<path d="M23 0.739014C18.5972 0.739014 14.2933 2.04459 10.6325 4.49065C6.97176 6.9367 4.11853 10.4134 2.43365 14.481C0.748781 18.5487 0.307942 23.0246 1.16688 27.3428C2.02582 31.661 4.14597 35.6275 7.2592 38.7407C10.3724 41.8539 14.3389 43.9741 18.6571 44.833C22.9753 45.692 27.4512 45.2511 31.5189 43.5662C35.5865 41.8814 39.0632 39.0281 41.5093 35.3674C43.9553 31.7066 45.2609 27.4027 45.2609 22.9999C45.2609 17.0959 42.9156 11.4338 38.7408 7.25907C34.5661 3.08435 28.904 0.739014 23 0.739014V0.739014ZM16.2228 31.6569L16.2228 14.3429L33.6481 22.9999L16.2228 31.6569Z" fill="#253858"/>
</svg>
