<svg width="50" height="50" viewBox="0 0 50 50" fill="none" xmlns="http://www.w3.org/2000/svg">
<g clip-path="url(#clip0_1799_13857)">
<g filter="url(#filter0_b_1799_13857)">
<circle cx="25" cy="25" r="25" fill="url(#paint0_linear_1799_13857)"/>
<circle cx="25" cy="25" r="24.5" stroke="url(#paint1_linear_1799_13857)"/>
</g>
<path opacity="0.5" fill-rule="evenodd" clip-rule="evenodd" d="M16.9639 22.2666C16.9639 21.5779 17.5222 21.0195 18.2109 21.0195H23.1991C23.8879 21.0195 24.4462 21.5779 24.4462 22.2666V27.2548C24.4462 27.9435 23.8879 28.5019 23.1991 28.5019H18.2109C17.5222 28.5019 16.9639 27.9435 16.9639 27.2548V22.2666Z" fill="white"/>
<path fill-rule="evenodd" clip-rule="evenodd" d="M33.0355 39.132C34.8721 39.132 36.3608 37.6432 36.3608 35.8067V13.9151C36.3608 12.0786 34.8721 10.5898 33.0355 10.5898H16.6861C14.8496 10.5898 13.3608 12.0786 13.3608 13.9151V35.8067C13.3608 37.6432 14.8496 39.132 16.6861 39.132H33.0355ZM33.0195 17.3352C33.0157 16.6465 32.4544 16.0913 31.7657 16.0951L18.0663 16.1707L18.0076 16.1724C17.3463 16.2067 16.8225 16.7555 16.8262 17.4245C16.83 18.1132 17.3914 18.6684 18.08 18.6646L31.7795 18.589L31.8382 18.5873C32.4994 18.553 33.0232 18.0042 33.0195 17.3352ZM31.7706 21.094C32.4593 21.094 33.0176 21.6523 33.0176 22.3411C33.0176 23.0101 32.4908 23.5561 31.8293 23.5868L31.7706 23.5881H27.6223C26.9336 23.5881 26.3752 23.0298 26.3752 22.3411C26.3752 21.672 26.9021 21.126 27.5636 21.0954L27.6223 21.094H31.7706ZM33.1743 27.3297C33.1743 26.641 32.616 26.0826 31.9272 26.0826H27.6233L27.5646 26.084C26.9031 26.1147 26.3762 26.6606 26.3762 27.3297C26.3762 28.0184 26.9346 28.5768 27.6233 28.5768H31.9272L31.9859 28.5754C32.6474 28.5447 33.1743 27.9987 33.1743 27.3297ZM31.7647 30.9951C32.4534 30.9913 33.0148 31.5465 33.0186 32.2352C33.0222 32.9042 32.4984 33.453 31.8372 33.4873L31.7785 33.489L18.0791 33.5646C17.3904 33.5684 16.829 33.0132 16.8252 32.3245C16.8215 31.6555 17.3454 31.1067 18.0066 31.0724L18.0653 31.0707L31.7647 30.9951ZM18.2119 21.02C17.5232 21.02 16.9649 21.5783 16.9649 22.2671V27.2553C16.9649 27.944 17.5232 28.5023 18.2119 28.5023H23.2001C23.8889 28.5023 24.4472 27.944 24.4472 27.2553V22.2671C24.4472 21.5783 23.8889 21.02 23.2001 21.02H18.2119Z" fill="white"/>
</g>
<defs>
<filter id="filter0_b_1799_13857" x="-50" y="-50" width="150" height="150" filterUnits="userSpaceOnUse" color-interpolation-filters="sRGB">
<feFlood flood-opacity="0" result="BackgroundImageFix"/>
<feGaussianBlur in="BackgroundImage" stdDeviation="25"/>
<feComposite in2="SourceAlpha" operator="in" result="effect1_backgroundBlur_1799_13857"/>
<feBlend mode="normal" in="SourceGraphic" in2="effect1_backgroundBlur_1799_13857" result="shape"/>
</filter>
<linearGradient id="paint0_linear_1799_13857" x1="25" y1="0" x2="25" y2="50" gradientUnits="userSpaceOnUse">
<stop stop-color="white" stop-opacity="0.38"/>
<stop offset="1" stop-color="white" stop-opacity="0.11"/>
</linearGradient>
<linearGradient id="paint1_linear_1799_13857" x1="25" y1="0" x2="25" y2="50" gradientUnits="userSpaceOnUse">
<stop offset="0.291667" stop-color="#97A0AF" stop-opacity="0.34"/>
<stop offset="1" stop-color="#A5ADBA" stop-opacity="0.81"/>
</linearGradient>
<clipPath id="clip0_1799_13857">
<rect width="50" height="50" rx="2" fill="white"/>
</clipPath>
</defs>
</svg>
