<svg width="34" height="34" viewBox="0 0 34 34" fill="none" xmlns="http://www.w3.org/2000/svg">
<path d="M10.0885 15.698C9.57351 15.1309 8.80099 15.1824 8.44048 15.8526L0.0972996 32.5047C-0.211707 33.1749 0.251802 33.9482 0.972818 33.9482H12.5606C12.9211 33.9482 13.2816 33.742 13.4361 33.3811C16.0112 28.2772 14.4661 20.3894 10.0885 15.698Z" fill="url(#paint0_linear_1809_1959)"/>
<path d="M16.166 0.541319C11.5309 7.91357 11.8399 16.1107 14.8784 22.2456C17.9685 28.3806 20.2861 33.1236 20.4921 33.4329C20.6466 33.7938 21.0071 34 21.3676 34H33.0068C33.7279 34 34.2429 33.2267 33.8824 32.5565C33.8824 32.5565 18.2775 1.31463 17.8655 0.541319C17.5565 -0.18044 16.6295 -0.18044 16.166 0.541319Z" fill="#7A869A"/>
<defs>
<linearGradient id="paint0_linear_1809_1959" x1="14.6439" y1="18.2818" x2="5.83742" y2="33.5194" gradientUnits="userSpaceOnUse">
<stop stop-color="#344563"/>
<stop offset="0.9228" stop-color="#7A869A"/>
</linearGradient>
</defs>
</svg>
