<svg width="368" height="207" viewBox="0 0 368 207" fill="none" xmlns="http://www.w3.org/2000/svg">
<rect width="368" height="207" fill="#253858"/>
<rect width="368" height="207" fill="url(#paint0_linear_2432_9560)"/>
<path d="M184 81.7383C179.597 81.7383 175.293 83.0439 171.633 85.4899C167.972 87.936 165.119 91.4126 163.434 95.4803C161.749 99.5479 161.308 104.024 162.167 108.342C163.026 112.66 165.146 116.627 168.259 119.74C171.373 122.853 175.339 124.973 179.657 125.832C183.975 126.691 188.451 126.25 192.519 124.566C196.587 122.881 200.063 120.027 202.509 116.367C204.955 112.706 206.261 108.402 206.261 103.999C206.261 98.0952 203.916 92.4331 199.741 88.2583C195.566 84.0836 189.904 81.7383 184 81.7383V81.7383ZM177.223 112.656V95.3421L194.648 103.999L177.223 112.656Z" fill="#253858"/>
<defs>
<linearGradient id="paint0_linear_2432_9560" x1="12.4511" y1="207" x2="368" y2="207" gradientUnits="userSpaceOnUse">
<stop stop-color="#0065FF"/>
<stop offset="1" stop-color="#00B8D9"/>
</linearGradient>
</defs>
</svg>
