<svg width="94" height="24" viewBox="0 0 94 24" fill="none" xmlns="http://www.w3.org/2000/svg">
<path opacity="0.5" fill-rule="evenodd" clip-rule="evenodd" d="M3.03711 17.3494C3.03711 17.7087 3.32839 18 3.68771 18H20.3142C20.6735 18 20.9648 17.7087 20.9648 17.3494C20.9648 16.9901 20.6735 16.6988 20.3142 16.6988H3.68771C3.32839 16.6988 3.03711 16.9901 3.03711 17.3494Z" fill="#B3F5FF"/>
<path fill-rule="evenodd" clip-rule="evenodd" d="M19.4497 15.9029C19.4497 16.3821 19.0612 16.7705 18.5821 16.7705H5.42568C4.94653 16.7705 4.55811 16.3821 4.55811 15.9029V7.66229C4.55811 6.70399 5.33496 5.92713 6.29326 5.92713H17.7145C18.6728 5.92713 19.4497 6.70399 19.4497 7.66228V15.9029ZM18.1457 7.22913H5.85655V15.3978H18.1457V7.22913Z" fill="#B3F5FF"/>
<path opacity="0.5" fill-rule="evenodd" clip-rule="evenodd" d="M5.85693 7.22949L18.1461 7.22949V15.3982H5.85693V7.22949Z" fill="#B3F5FF"/>
<path d="M36.872 9.734C38.678 9.734 39.504 10.686 39.504 12.464C39.504 14.102 38.65 15.068 36.942 15.068H35.304V9.734H36.872ZM33.176 17H36.928C40.078 17 41.632 15.208 41.632 12.422C41.632 9.664 40.092 7.802 36.928 7.802H33.176V17ZM44.6655 7.802V17H46.7935V7.802H44.6655ZM58.3202 16.496V11.652H54.4982V13.304H56.2062V15.138C55.8842 15.18 55.5902 15.194 55.3662 15.194C53.1122 15.194 52.0902 14.046 52.0902 12.38C52.0902 10.672 53.1122 9.566 55.5202 9.566C56.3322 9.566 57.3122 9.706 58.1242 10.07V8.138C57.2422 7.76 56.1922 7.648 55.3522 7.648C51.8942 7.648 49.8502 9.426 49.8502 12.422C49.8502 15.208 51.6562 17.154 55.0022 17.154C56.1082 17.154 57.5502 16.958 58.3202 16.496ZM62.0261 7.802V17H64.1541V7.802H62.0261ZM67.0568 7.802V9.734H69.4368V17H71.5788V9.734H73.9588V7.802H67.0568ZM82.5449 17H84.8269L81.8449 7.802H78.4149L75.4049 17H77.6869L78.2189 15.264H82.0269L82.5449 17ZM81.4669 13.416H78.7789L80.1229 8.936L81.4669 13.416ZM87.2534 7.802V17H92.9934V15.068H89.3954V7.802H87.2534Z" fill="#B3F5FF"/>
</svg>
