<svg width="30" height="30" viewBox="0 0 30 30" fill="none" xmlns="http://www.w3.org/2000/svg">
<rect width="30" height="30" fill="black" fill-opacity="0.5"/>
<path d="M13.922 17.5169L8.87 15.6799L7.938 15.3409C7.418 15.1509 7 14.5519 7 13.9999C7 13.4439 7.42 12.8469 7.938 12.6589L17.062 9.3409C17.582 9.1509 18 9.4459 18 9.9949V18.0049C18 18.5449 17.58 18.8469 17.062 18.6589L13.922 17.5169ZM9 17.2269L11 17.9549V19.9999C11 20.5519 10.595 21.2019 10.105 21.4469L9.895 21.5529C9.4 21.7999 9 21.5489 9 21.0089V17.2269ZM20.224 12.4469C20.1652 12.4769 20.1011 12.495 20.0353 12.5001C19.9695 12.5052 19.9034 12.4973 19.8407 12.4767C19.778 12.4562 19.72 12.4234 19.67 12.3803C19.62 12.3372 19.5791 12.2846 19.5495 12.2256C19.52 12.1666 19.5024 12.1024 19.4978 12.0366C19.4931 11.9707 19.5016 11.9046 19.5227 11.8421C19.5437 11.7796 19.5769 11.7218 19.6204 11.6722C19.6639 11.6225 19.7168 11.582 19.776 11.5529L21.776 10.5529C21.8348 10.5229 21.8989 10.5048 21.9647 10.4997C22.0305 10.4946 22.0966 10.5025 22.1593 10.5231C22.222 10.5436 22.28 10.5764 22.33 10.6195C22.38 10.6626 22.4209 10.7152 22.4505 10.7742C22.48 10.8332 22.4976 10.8974 22.5022 10.9632C22.5069 11.0291 22.4984 11.0952 22.4773 11.1577C22.4563 11.2202 22.4231 11.278 22.3796 11.3276C22.3361 11.3773 22.2832 11.4178 22.224 11.4469L20.224 12.4469ZM19.776 16.4469C19.6585 16.3869 19.5695 16.2828 19.5284 16.1575C19.4872 16.0321 19.4973 15.8956 19.5564 15.7776C19.6156 15.6597 19.7189 15.5699 19.8439 15.5278C19.969 15.4857 20.1056 15.4947 20.224 15.5529L22.224 16.5529C22.3415 16.6129 22.4305 16.7169 22.4716 16.8423C22.5128 16.9677 22.5027 17.1042 22.4436 17.2222C22.3844 17.3401 22.2811 17.4299 22.1561 17.472C22.031 17.5141 21.8944 17.5051 21.776 17.4469L19.776 16.4469ZM20 14.4999C19.8674 14.4999 19.7402 14.4472 19.6464 14.3535C19.5527 14.2597 19.5 14.1325 19.5 13.9999C19.5 13.8673 19.5527 13.7401 19.6464 13.6463C19.7402 13.5526 19.8674 13.4999 20 13.4999H23C23.1326 13.4999 23.2598 13.5526 23.3536 13.6463C23.4473 13.7401 23.5 13.8673 23.5 13.9999C23.5 14.1325 23.4473 14.2597 23.3536 14.3535C23.2598 14.4472 23.1326 14.4999 23 14.4999H20Z" fill="white"/>
</svg>
