<svg width="131" height="24" viewBox="0 0 131 24" fill="none" xmlns="http://www.w3.org/2000/svg">
<path opacity="0.5" fill-rule="evenodd" clip-rule="evenodd" d="M3.03711 17.3494C3.03711 17.7087 3.32839 18 3.68771 18H20.3142C20.6735 18 20.9648 17.7087 20.9648 17.3494C20.9648 16.9901 20.6735 16.6988 20.3142 16.6988H3.68771C3.32839 16.6988 3.03711 16.9901 3.03711 17.3494Z" fill="#C0B6F2"/>
<path fill-rule="evenodd" clip-rule="evenodd" d="M19.4497 15.9029C19.4497 16.3821 19.0612 16.7705 18.5821 16.7705H5.42568C4.94653 16.7705 4.55811 16.3821 4.55811 15.9029V7.66229C4.55811 6.70399 5.33496 5.92713 6.29326 5.92713H17.7145C18.6728 5.92713 19.4497 6.70399 19.4497 7.66229V15.9029ZM18.1457 7.22913H5.85655V15.3978H18.1457V7.22913Z" fill="#C0B6F2"/>
<path opacity="0.5" fill-rule="evenodd" clip-rule="evenodd" d="M5.85693 7.22949L18.1461 7.22949V15.3982H5.85693V7.22949Z" fill="#C0B6F2"/>
<path d="M33.162 7.802V17H38.902V15.068H35.304V7.802H33.162ZM41.9038 7.802V17H44.0318V7.802H41.9038ZM52.5905 17L55.7545 7.802H53.2625L51.1625 15.25L49.0905 7.802H46.6125L49.7345 17H52.5905ZM58.321 17H65.013V15.068H60.449V13.304H64.453V11.554H60.449V9.734H64.929V7.802H58.321V17ZM74.7199 14.242C74.7199 12.744 73.8239 11.862 71.5419 11.386C70.0439 11.064 69.7639 10.84 69.7639 10.392C69.7639 9.86 70.2539 9.622 71.1359 9.622C72.0039 9.622 73.2219 9.86 74.3279 10.35V8.306C73.6139 7.928 72.5079 7.634 71.2059 7.634C68.8819 7.634 67.6359 8.712 67.6359 10.392C67.6359 11.82 68.4199 12.786 70.6599 13.206C72.2279 13.514 72.5919 13.85 72.5919 14.326C72.5919 14.844 72.1999 15.138 71.1779 15.138C70.0439 15.138 68.5459 14.746 67.6779 14.326V16.398C68.4339 16.804 69.4699 17.168 71.1639 17.168C73.6979 17.168 74.7199 16.034 74.7199 14.242ZM76.9607 7.802V9.734H79.3407V17H81.4827V9.734H83.8627V7.802H76.9607ZM90.5275 9.776C91.6475 9.776 91.9975 10.266 91.9975 11.036C91.9975 11.778 91.6615 12.296 90.5275 12.296H88.8335V9.776H90.5275ZM94.1255 11.036C94.1255 8.894 92.9915 7.802 90.6675 7.802H86.7615V17H88.8335V14.144H90.6115L92.0115 17H94.4335L92.4875 13.794C93.5935 13.304 94.1255 12.324 94.1255 11.036ZM97.4581 17H104.15V15.068H99.5861V13.304H103.59V11.554H99.5861V9.734H104.066V7.802H97.4581V17ZM113.241 17H115.523L112.541 7.802H109.111L106.101 17H108.383L108.915 15.264H112.723L113.241 17ZM112.163 13.416H109.475L110.819 8.936L112.163 13.416ZM121.001 12.926L122.331 17H124.473L125.845 12.926L126.741 9.552V17H128.925V7.802H125.467L124.277 11.554L123.465 14.634L122.681 11.554L121.519 7.802H117.949V17H120.035V9.454L121.001 12.926Z" fill="#C0B6F2"/>
</svg>
