<svg width="118" height="24" viewBox="0 0 118 24" fill="none" xmlns="http://www.w3.org/2000/svg">
<rect opacity="0.5" x="9.30908" y="8.83789" width="5.52897" height="5.52897" rx="2.76449" fill="#ABF5D1"/>
<path fill-rule="evenodd" clip-rule="evenodd" d="M3.77979 12.803C3.77979 8.22332 7.49236 4.51074 12.0721 4.51074C16.6518 4.51074 20.3643 8.22332 20.3643 12.803C20.3643 15.5927 18.9868 18.0606 16.8748 19.5636V19.0217C16.8748 16.9428 15.1896 15.2575 13.1107 15.2575H11.0377C8.95877 15.2575 7.27349 16.9428 7.27349 19.0217V19.5666C5.15916 18.0639 3.77979 15.5945 3.77979 12.803ZM9.30906 11.6023C9.30906 10.0756 10.5468 8.83786 12.0735 8.83786C13.6003 8.83786 14.838 10.0756 14.838 11.6023C14.838 13.1291 13.6003 14.3668 12.0735 14.3668C10.5468 14.3668 9.30906 13.1291 9.30906 11.6023Z" fill="#ABF5D1"/>
<path d="M33.162 7.802V17H35.29V7.802H33.162ZM45.1787 7.802V13.836L44.0447 11.47L41.8887 7.802H39.0327V17H41.1187V10.224L42.3507 12.744L44.8287 17H47.2647V7.802H45.1787ZM63.0733 11.162C63.0733 9.09 61.8693 7.802 59.4893 7.802H55.7233V17H57.8513V14.48H59.4893C61.8693 14.48 63.0733 13.29 63.0733 11.162ZM59.2933 12.618H57.8513V9.776H59.2933C60.4553 9.776 60.9313 10.35 60.9313 11.218C60.9313 12.086 60.4553 12.674 59.2933 12.618ZM65.928 17H72.62V15.068H68.056V13.304H72.06V11.554H68.056V9.734H72.536V7.802H65.928V17ZM79.6529 9.776C80.7729 9.776 81.1229 10.266 81.1229 11.036C81.1229 11.778 80.7869 12.296 79.6529 12.296H77.9589V9.776H79.6529ZM83.2509 11.036C83.2509 8.894 82.1169 7.802 79.7929 7.802H75.8869V17H77.9589V14.144H79.7369L81.1369 17H83.5589L81.6129 13.794C82.7189 13.304 83.2509 12.324 83.2509 11.036ZM93.0375 14.242C93.0375 12.744 92.1415 11.862 89.8595 11.386C88.3615 11.064 88.0815 10.84 88.0815 10.392C88.0815 9.86 88.5715 9.622 89.4535 9.622C90.3215 9.622 91.5395 9.86 92.6455 10.35V8.306C91.9315 7.928 90.8255 7.634 89.5235 7.634C87.1995 7.634 85.9535 8.712 85.9535 10.392C85.9535 11.82 86.7375 12.786 88.9775 13.206C90.5455 13.514 90.9095 13.85 90.9095 14.326C90.9095 14.844 90.5175 15.138 89.4955 15.138C88.3615 15.138 86.8635 14.746 85.9955 14.326V16.398C86.7515 16.804 87.7875 17.168 89.4815 17.168C92.0155 17.168 93.0375 16.034 93.0375 14.242ZM100.164 17.168C103.174 17.168 104.882 15.18 104.882 12.38C104.882 9.608 103.174 7.634 100.164 7.634C97.1262 7.634 95.4322 9.608 95.4322 12.38C95.4322 15.18 97.1262 17.168 100.164 17.168ZM100.136 9.58C101.984 9.58 102.726 10.868 102.726 12.408C102.726 13.948 101.984 15.222 100.136 15.222C98.3162 15.222 97.5882 13.934 97.5882 12.408C97.5882 10.868 98.3162 9.58 100.136 9.58ZM114.069 7.802V13.836L112.935 11.47L110.779 7.802H107.923V17H110.009V10.224L111.241 12.744L113.719 17H116.155V7.802H114.069Z" fill="#ABF5D1"/>
</svg>
