<svg width="24" height="24" viewBox="0 0 24 24" fill="none" xmlns="http://www.w3.org/2000/svg">
<path d="M12.0002 3.65234C10.3491 3.65234 8.73516 4.14194 7.36237 5.05921C5.98958 5.97648 4.91962 7.28023 4.28779 8.8056C3.65596 10.331 3.49065 12.0094 3.81275 13.6287C4.13485 15.2481 4.9299 16.7355 6.09737 17.903C7.26483 19.0704 8.75227 19.8655 10.3716 20.1876C11.9909 20.5097 13.6694 20.3444 15.1947 19.7126C16.7201 19.0807 18.0239 18.0108 18.9411 16.638C19.8584 15.2652 20.348 13.6512 20.348 12.0002C20.348 9.78619 19.4685 7.66289 17.903 6.09737C16.3375 4.53184 14.2142 3.65234 12.0002 3.65234V3.65234ZM9.45872 15.2465V8.75379L15.9932 12.0002L9.45872 15.2465Z" fill="#B3F5FF"/>
</svg>
