<svg width="234" height="24" viewBox="0 0 234 24" fill="none" xmlns="http://www.w3.org/2000/svg">
<rect opacity="0.5" x="9.30908" y="8.83789" width="5.52897" height="5.52897" rx="2.76449" fill="#B3F5FF"/>
<path fill-rule="evenodd" clip-rule="evenodd" d="M3.77979 12.803C3.77979 8.22332 7.49236 4.51074 12.0721 4.51074C16.6518 4.51074 20.3643 8.22332 20.3643 12.803C20.3643 15.5927 18.9868 18.0606 16.8748 19.5636V19.0217C16.8748 16.9428 15.1896 15.2575 13.1107 15.2575H11.0377C8.95877 15.2575 7.27349 16.9428 7.27349 19.0217V19.5666C5.15916 18.0639 3.77979 15.5945 3.77979 12.803ZM9.30906 11.6023C9.30906 10.0756 10.5468 8.83786 12.0735 8.83786C13.6003 8.83786 14.838 10.0756 14.838 11.6023C14.838 13.1291 13.6003 14.3668 12.0735 14.3668C10.5468 14.3668 9.30906 13.1291 9.30906 11.6023Z" fill="#B3F5FF"/>
<path d="M33.162 7.802V17H35.29V7.802H33.162ZM45.1787 7.802V13.836L44.0447 11.47L41.8887 7.802H39.0327V17H41.1187V10.224L42.3507 12.744L44.8287 17H47.2647V7.802H45.1787ZM50.2031 12.254V14.242H54.9071V12.254H50.2031ZM65.1788 11.162C65.1788 9.09 63.9748 7.802 61.5948 7.802H57.8288V17H59.9568V14.48H61.5948C63.9748 14.48 65.1788 13.29 65.1788 11.162ZM61.3988 12.618H59.9568V9.776H61.3988C62.5608 9.776 63.0368 10.35 63.0368 11.218C63.0368 12.086 62.5608 12.674 61.3988 12.618ZM68.0335 17H74.7255V15.068H70.1615V13.304H74.1655V11.554H70.1615V9.734H74.6415V7.802H68.0335V17ZM81.7584 9.776C82.8784 9.776 83.2284 10.266 83.2284 11.036C83.2284 11.778 82.8924 12.296 81.7584 12.296H80.0644V9.776H81.7584ZM85.3564 11.036C85.3564 8.894 84.2224 7.802 81.8984 7.802H77.9924V17H80.0644V14.144H81.8424L83.2424 17H85.6644L83.7184 13.794C84.8244 13.304 85.3564 12.324 85.3564 11.036ZM95.143 14.242C95.143 12.744 94.247 11.862 91.965 11.386C90.467 11.064 90.187 10.84 90.187 10.392C90.187 9.86 90.677 9.622 91.559 9.622C92.427 9.622 93.645 9.86 94.751 10.35V8.306C94.037 7.928 92.931 7.634 91.629 7.634C89.305 7.634 88.059 8.712 88.059 10.392C88.059 11.82 88.843 12.786 91.083 13.206C92.651 13.514 93.015 13.85 93.015 14.326C93.015 14.844 92.623 15.138 91.601 15.138C90.467 15.138 88.969 14.746 88.101 14.326V16.398C88.857 16.804 89.893 17.168 91.587 17.168C94.121 17.168 95.143 16.034 95.143 14.242ZM102.27 17.168C105.28 17.168 106.988 15.18 106.988 12.38C106.988 9.608 105.28 7.634 102.27 7.634C99.2317 7.634 97.5377 9.608 97.5377 12.38C97.5377 15.18 99.2317 17.168 102.27 17.168ZM102.242 9.58C104.09 9.58 104.832 10.868 104.832 12.408C104.832 13.948 104.09 15.222 102.242 15.222C100.422 15.222 99.6937 13.934 99.6937 12.408C99.6937 10.868 100.422 9.58 102.242 9.58ZM116.174 7.802V13.836L115.04 11.47L112.884 7.802H110.028V17H112.114V10.224L113.346 12.744L115.824 17H118.26V7.802H116.174Z" fill="#B3F5FF"/>
<path opacity="0.5" fill-rule="evenodd" clip-rule="evenodd" d="M143.037 17.3494C143.037 17.7087 143.328 18 143.688 18H160.314C160.674 18 160.965 17.7087 160.965 17.3494C160.965 16.9901 160.674 16.6988 160.314 16.6988H143.688C143.328 16.6988 143.037 16.9901 143.037 17.3494Z" fill="#B3F5FF"/>
<path fill-rule="evenodd" clip-rule="evenodd" d="M159.45 15.9029C159.45 16.3821 159.061 16.7705 158.582 16.7705H145.426C144.947 16.7705 144.558 16.3821 144.558 15.9029V7.66229C144.558 6.70399 145.335 5.92713 146.293 5.92713H157.715C158.673 5.92713 159.45 6.70399 159.45 7.66228V15.9029ZM158.146 7.22913H145.857V15.3978H158.146V7.22913Z" fill="#B3F5FF"/>
<path opacity="0.5" fill-rule="evenodd" clip-rule="evenodd" d="M145.857 7.22949L158.146 7.22949V15.3982H145.857V7.22949Z" fill="#B3F5FF"/>
<path d="M176.872 9.734C178.678 9.734 179.504 10.686 179.504 12.464C179.504 14.102 178.65 15.068 176.942 15.068H175.304V9.734H176.872ZM173.176 17H176.928C180.078 17 181.632 15.208 181.632 12.422C181.632 9.664 180.092 7.802 176.928 7.802H173.176V17ZM184.666 7.802V17H186.794V7.802H184.666ZM198.32 16.496V11.652H194.498V13.304H196.206V15.138C195.884 15.18 195.59 15.194 195.366 15.194C193.112 15.194 192.09 14.046 192.09 12.38C192.09 10.672 193.112 9.566 195.52 9.566C196.332 9.566 197.312 9.706 198.124 10.07V8.138C197.242 7.76 196.192 7.648 195.352 7.648C191.894 7.648 189.85 9.426 189.85 12.422C189.85 15.208 191.656 17.154 195.002 17.154C196.108 17.154 197.55 16.958 198.32 16.496ZM202.026 7.802V17H204.154V7.802H202.026ZM207.057 7.802V9.734H209.437V17H211.579V9.734H213.959V7.802H207.057ZM222.545 17H224.827L221.845 7.802H218.415L215.405 17H217.687L218.219 15.264H222.027L222.545 17ZM221.467 13.416H218.779L220.123 8.936L221.467 13.416ZM227.253 7.802V17H232.993V15.068H229.395V7.802H227.253Z" fill="#B3F5FF"/>
</svg>
