<svg width="120" height="24" viewBox="0 0 120 24" fill="none" xmlns="http://www.w3.org/2000/svg">
<rect opacity="0.5" x="9.30908" y="8.83594" width="5.52897" height="5.52897" rx="2.76449" fill="#B3F5FF"/>
<path fill-rule="evenodd" clip-rule="evenodd" d="M3.77979 12.802C3.77979 8.22234 7.49236 4.50977 12.0721 4.50977C16.6518 4.50977 20.3643 8.22234 20.3643 12.802C20.3643 15.5917 18.9868 18.0596 16.8748 19.5627V19.0207C16.8748 16.9418 15.1896 15.2566 13.1107 15.2566H11.0377C8.95877 15.2566 7.27349 16.9418 7.27349 19.0207V19.5657C5.15916 18.0629 3.77979 15.5936 3.77979 12.802ZM9.30906 11.6014C9.30906 10.0746 10.5468 8.83688 12.0735 8.83688C13.6003 8.83688 14.838 10.0746 14.838 11.6014C14.838 13.1282 13.6003 14.3659 12.0735 14.3659C10.5468 14.3659 9.30906 13.1282 9.30906 11.6014Z" fill="#B3F5FF"/>
<path d="M33.162 7.802V17H35.29V7.802H33.162ZM45.1787 7.802V13.836L44.0447 11.47L41.8887 7.802H39.0327V17H41.1187V10.224L42.3507 12.744L44.8287 17H47.2647V7.802H45.1787ZM50.2031 12.254V14.242H54.9071V12.254H50.2031ZM65.1788 11.162C65.1788 9.09 63.9748 7.802 61.5948 7.802H57.8288V17H59.9568V14.48H61.5948C63.9748 14.48 65.1788 13.29 65.1788 11.162ZM61.3988 12.618H59.9568V9.776H61.3988C62.5608 9.776 63.0368 10.35 63.0368 11.218C63.0368 12.086 62.5608 12.674 61.3988 12.618ZM68.0335 17H74.7255V15.068H70.1615V13.304H74.1655V11.554H70.1615V9.734H74.6415V7.802H68.0335V17ZM81.7584 9.776C82.8784 9.776 83.2284 10.266 83.2284 11.036C83.2284 11.778 82.8924 12.296 81.7584 12.296H80.0644V9.776H81.7584ZM85.3564 11.036C85.3564 8.894 84.2224 7.802 81.8984 7.802H77.9924V17H80.0644V14.144H81.8424L83.2424 17H85.6644L83.7184 13.794C84.8244 13.304 85.3564 12.324 85.3564 11.036ZM95.143 14.242C95.143 12.744 94.247 11.862 91.965 11.386C90.467 11.064 90.187 10.84 90.187 10.392C90.187 9.86 90.677 9.622 91.559 9.622C92.427 9.622 93.645 9.86 94.751 10.35V8.306C94.037 7.928 92.931 7.634 91.629 7.634C89.305 7.634 88.059 8.712 88.059 10.392C88.059 11.82 88.843 12.786 91.083 13.206C92.651 13.514 93.015 13.85 93.015 14.326C93.015 14.844 92.623 15.138 91.601 15.138C90.467 15.138 88.969 14.746 88.101 14.326V16.398C88.857 16.804 89.893 17.168 91.587 17.168C94.121 17.168 95.143 16.034 95.143 14.242ZM102.27 17.168C105.28 17.168 106.988 15.18 106.988 12.38C106.988 9.608 105.28 7.634 102.27 7.634C99.2317 7.634 97.5377 9.608 97.5377 12.38C97.5377 15.18 99.2317 17.168 102.27 17.168ZM102.242 9.58C104.09 9.58 104.832 10.868 104.832 12.408C104.832 13.948 104.09 15.222 102.242 15.222C100.422 15.222 99.6937 13.934 99.6937 12.408C99.6937 10.868 100.422 9.58 102.242 9.58ZM116.174 7.802V13.836L115.04 11.47L112.884 7.802H110.028V17H112.114V10.224L113.346 12.744L115.824 17H118.26V7.802H116.174Z" fill="#B3F5FF"/>
</svg>
