<svg width="32" height="32" viewBox="0 0 32 32" fill="none" xmlns="http://www.w3.org/2000/svg">
<path d="M27.4284 2.66602H4.56531C3.51769 2.66602 2.6665 3.52911 2.6665 4.58863V27.4101C2.6665 28.4696 3.51769 29.3327 4.56531 29.3327H27.4284C28.476 29.3327 29.3332 28.4696 29.3332 27.4101V4.58863C29.3332 3.52911 28.476 2.66602 27.4284 2.66602ZM10.726 25.5232H6.77365V12.797H10.732V25.5232H10.726ZM8.74984 11.0589C7.48198 11.0589 6.45817 10.0291 6.45817 8.76721C6.45817 7.5053 7.48198 6.47554 8.74984 6.47554C10.0117 6.47554 11.0415 7.5053 11.0415 8.76721C11.0415 10.0351 10.0177 11.0589 8.74984 11.0589ZM25.5415 25.5232H21.5891V19.3327C21.5891 17.8565 21.5594 15.9577 19.5356 15.9577C17.476 15.9577 17.1606 17.5648 17.1606 19.2255V25.5232H13.2082V12.797H16.9998V14.5351H17.0534C17.5832 13.5351 18.8748 12.4815 20.7975 12.4815C24.7975 12.4815 25.5415 15.1184 25.5415 18.547V25.5232Z" fill="white"/>
</svg>
