<svg width="18" height="18" viewBox="0 0 18 18" fill="none" xmlns="http://www.w3.org/2000/svg">
<path fill-rule="evenodd" clip-rule="evenodd" d="M9.00006 2.51406e-07V2H16.0001V16H9.00006V18H16.0061C17.1061 18 18.0001 17.107 18.0001 16.005V1.995C18.0003 1.73302 17.9489 1.47357 17.8488 1.23147C17.7487 0.989369 17.6019 0.769382 17.4167 0.58409C17.2315 0.398797 17.0116 0.251836 16.7695 0.151612C16.5275 0.0513882 16.268 -0.000131329 16.0061 2.51406e-07H9.00006Z" fill="white"/>
<path fill-rule="evenodd" clip-rule="evenodd" d="M0.977062 8C0.714841 8.00343 0.464693 8.11075 0.281523 8.29842C0.0983522 8.48609 -0.00287407 8.73877 6.21384e-05 9.001C6.21384e-05 9.552 0.437062 10 0.977062 10H12.0241C12.2859 9.99684 12.5358 9.88983 12.7188 9.70251C12.9018 9.51519 13.003 9.26287 13.0001 9.001C13.003 8.73895 12.9019 8.48641 12.719 8.29877C12.536 8.11113 12.2861 8.00369 12.0241 8H0.977062Z" fill="white"/>
<path fill-rule="evenodd" clip-rule="evenodd" d="M9.30306 5.305C9.10898 5.502 9.00019 5.76745 9.00019 6.044C9.00019 6.32055 9.10898 6.586 9.30306 6.783L11.5001 9L9.30306 11.217C9.10886 11.4135 8.99996 11.6787 8.99996 11.955C8.99996 12.2313 9.10886 12.4965 9.30306 12.693C9.70706 13.102 10.3631 13.102 10.7681 12.693L13.6981 9.738C13.8914 9.54079 13.9996 9.27565 13.9996 8.9995C13.9996 8.72335 13.8914 8.45821 13.6981 8.261L10.7681 5.305C10.672 5.20858 10.5578 5.13207 10.4321 5.07987C10.3064 5.02767 10.1717 5.00079 10.0356 5.00079C9.89945 5.00079 9.76468 5.02767 9.63898 5.07987C9.51328 5.13207 9.39913 5.20858 9.30306 5.305Z" fill="white"/>
</svg>
