<svg width="262" height="551" viewBox="0 0 262 551" fill="none" xmlns="http://www.w3.org/2000/svg">
<g clip-path="url(#clip0_2397_25870)">
<path d="M173.004 501.157L172.552 499.348C170.509 491.175 170.962 480.903 178.604 473.527C181.385 470.849 184.173 468.34 186.924 465.864C187.121 465.686 187.318 465.509 187.515 465.332C190.452 462.687 193.343 460.069 196.101 457.339M173.004 501.157L297.092 372.881C296.336 373.535 296.336 373.535 296.336 373.535L296.301 373.494L296.27 373.45C293.643 369.659 292.373 366.8 292.057 364.061C291.741 361.329 292.395 358.842 293.323 355.891L293.326 355.88L293.326 355.88C293.443 355.522 293.565 355.153 293.69 354.773C294.249 353.08 294.881 351.165 295.518 348.927M173.004 501.157C174.136 505.037 175.906 508.833 178.807 511.42C183.028 515.151 186.544 517.506 190.139 518.822C193.707 520.127 197.466 520.372 202.259 519.789L202.264 519.788C204.424 519.535 206.799 519.089 209.502 518.489C211.777 517.975 213.844 516.871 215.795 515.288C220.65 511.297 224.429 504.382 227.837 496.875C228.958 494.406 230.04 491.869 231.105 489.37C233.235 484.375 235.299 479.532 237.478 475.7L237.478 475.7C239.035 472.962 240.893 470.908 243.058 469.357C247.574 466.095 253.396 464.951 260.503 463.582L260.888 463.508C267.978 462.143 276.529 460.496 286.892 456.438L286.892 456.438C290.956 454.848 294.462 453.035 297.484 450.952L297.493 450.946C313.905 439.888 316.744 422.591 312.673 406.244C312.596 405.939 312.51 405.613 312.423 405.285C312.31 404.858 312.196 404.427 312.1 404.031C309.528 394.93 305.583 387.298 302.276 381.938C300.623 379.257 299.131 377.149 298.056 375.714C297.518 374.997 297.085 374.448 296.788 374.081C296.639 373.897 296.524 373.759 296.448 373.667C296.409 373.621 296.381 373.587 296.362 373.565L296.341 373.541L296.337 373.536L296.336 373.535L173.004 501.157ZM196.101 457.339C196.101 457.34 196.101 457.34 196.1 457.34L195.398 456.629L196.101 457.339ZM196.101 457.339C202.958 450.574 209.008 443.104 213.103 432.731L213.104 432.731C215.896 425.647 217.483 418.149 219.014 410.915C219.187 410.097 219.36 409.283 219.533 408.473L219.533 408.473C221.882 397.471 224.322 387.388 230.724 379.969M230.724 379.969C235.334 374.682 241.787 371.487 248.646 368.952M230.724 379.969C230.724 379.969 230.725 379.968 230.725 379.968L229.968 379.314M230.724 379.969C230.723 379.97 230.723 379.971 230.722 379.971L229.968 379.314M248.646 368.952C251.023 368.075 253.43 367.281 255.811 366.5L256.132 366.395C258.397 365.652 260.639 364.916 262.778 364.136C267.244 362.506 271.371 360.645 274.479 357.99L274.48 357.989C281.627 351.873 284.766 345.329 285.066 337.608L285.066 337.608L285.066 337.599C285.172 334.07 284.715 330.325 283.777 326.318L283.777 326.317C282.496 320.85 282.094 314.015 283.47 307.929C284.844 301.85 287.954 296.653 293.592 294.157L293.595 294.156C297.371 292.466 301.848 292.179 305.935 292.764C310.005 293.348 313.771 294.813 316.925 296.869C320.074 298.921 322.505 301.55 323.952 304.448C325.386 307.322 325.788 310.435 324.886 313.573M248.646 368.952C248.646 368.952 248.647 368.952 248.647 368.952L248.3 368.014M248.646 368.952L248.3 368.014M324.886 313.573C324.681 314.217 324.413 314.844 324.107 315.554M324.886 313.573C324.885 313.577 324.884 313.581 324.883 313.586L325.844 313.862M324.886 313.573C324.888 313.569 324.889 313.565 324.89 313.561L325.844 313.862M324.107 315.554C321.197 321.683 315.23 326.965 309.33 332.187C309.2 332.302 309.069 332.418 308.938 332.534C305.956 335.174 303.018 337.801 300.633 340.474C298.252 343.143 296.351 345.933 295.518 348.927M324.107 315.554C324.105 315.56 324.102 315.566 324.1 315.571L325.019 315.966M324.107 315.554C324.11 315.549 324.112 315.544 324.115 315.538L325.019 315.966M295.518 348.927C295.517 348.928 295.517 348.929 295.517 348.93L296.48 349.198L295.518 348.924C295.518 348.925 295.518 348.926 295.518 348.927ZM325.019 315.966C325.326 315.252 325.619 314.572 325.844 313.862M325.019 315.966L282.804 326.546C280.189 315.384 281.133 298.578 293.187 293.243C297.182 291.455 301.861 291.17 306.077 291.775C310.293 292.379 314.196 293.897 317.471 296.031C320.746 298.166 323.309 300.921 324.847 304.001C326.384 307.081 326.826 310.456 325.844 313.862M248.3 368.014C241.395 370.566 234.747 373.832 229.968 379.314M248.3 368.014L212.173 432.364C214.933 425.364 216.503 417.949 218.037 410.704C218.209 409.888 218.382 409.075 218.555 408.264C220.896 397.299 223.372 386.957 229.968 379.314" stroke="url(#paint0_linear_2397_25870)" stroke-width="2"/>
<path d="M194.738 235.612L194.65 235.514L195.789 234.921C206.602 229.294 219.677 227.487 234.424 233.031C237.993 234.371 241.661 236.151 245.395 238.385L245.396 238.385C258.719 246.382 266.843 255.103 272.214 263.609C276.746 270.784 279.265 277.758 281.287 283.858C281.541 284.623 281.786 285.373 282.026 286.105C283.715 291.265 285.129 295.585 287.295 298.853C288.461 300.581 289.785 301.991 291.441 303.014L291.448 303.018C297.837 307.033 301.981 308.984 305.8 309.524C309.59 310.06 313.186 309.223 318.548 307.324C319.145 307.112 319.727 306.893 320.338 306.663C320.856 306.468 321.394 306.265 321.978 306.053C328.894 303.452 339.335 300.231 350.61 299.93L350.611 299.93C361.381 299.649 372.951 302.089 382.869 310.381C384.297 311.566 385.567 312.864 386.677 314.277C390.325 318.871 392.227 324.396 392.765 330.09L392.765 330.093C393.298 335.872 392.415 341.909 390.375 347.445L390.375 347.446C388.301 353.069 385.11 358.246 380.996 362.213C379.087 364.073 376.97 365.647 374.715 366.907L374.711 366.909C372.038 368.386 369.097 369.606 365.993 370.526L365.987 370.527L365.987 370.527C355.256 373.643 342.331 372.731 330.404 363.697C328.58 362.333 326.794 360.756 325.012 358.986L325.01 358.984C318.97 352.951 314.115 344.762 306.201 330.915M194.738 235.612L307.069 330.417M194.738 235.612C188.781 238.899 183.525 243.368 179.075 248.312C174.341 253.571 170.281 259.802 167.416 265.685C166.324 267.914 165.423 270.097 164.616 272.188L164.613 272.197L164.609 272.206C162.87 276.986 161.74 281.457 161.387 285.748C160.815 292.336 162.005 298.328 165.162 303.934C170.456 313.367 181.231 321.608 198.209 329.802L198.212 329.803C198.312 329.851 198.416 329.9 198.521 329.95C198.605 329.99 198.689 330.03 198.773 330.069L198.778 330.072C198.966 330.161 199.152 330.249 199.326 330.332L199.329 330.334C215.033 337.785 230.361 335.951 243.425 331.326M194.738 235.612L243.425 331.326M306.201 330.915C306.201 330.915 306.201 330.914 306.2 330.913L307.069 330.417M306.201 330.915C306.202 330.915 306.202 330.916 306.202 330.916L307.069 330.417M306.201 330.915C303.377 326.008 299.461 320.607 294.713 316.965C289.998 313.349 284.554 311.523 278.517 313.495M307.069 330.417C301.36 320.497 291.088 308.303 278.163 312.558M278.517 313.495L278.517 313.494L278.518 313.494L278.519 313.494L278.52 313.493L278.521 313.493L278.521 313.493L278.522 313.492L278.523 313.492L278.524 313.492L278.525 313.491L278.525 313.491L278.526 313.491L278.527 313.49L278.528 313.49L278.529 313.49L278.529 313.489L278.53 313.489L278.531 313.489L278.532 313.488L278.533 313.488L278.533 313.488L278.534 313.487L278.535 313.487L278.536 313.487L278.537 313.486L278.537 313.486L278.538 313.486L278.539 313.485L278.54 313.485L278.541 313.484L278.541 313.484L278.542 313.484L278.543 313.483L278.544 313.483L278.545 313.483L278.545 313.482L278.546 313.482L278.547 313.482L278.548 313.481L278.549 313.481L278.549 313.481L278.55 313.48L278.551 313.48L278.552 313.48L278.553 313.479L278.553 313.479L278.554 313.479L278.555 313.478L278.556 313.478L278.557 313.478L278.557 313.477L278.163 312.558M278.517 313.495L278.516 313.495L278.515 313.495L278.514 313.496L278.513 313.496L278.513 313.496L278.512 313.497L278.511 313.497L278.51 313.497L278.509 313.498L278.509 313.498L278.508 313.499L278.507 313.499L278.506 313.499L278.505 313.5L278.505 313.5L278.504 313.5L278.503 313.501L278.502 313.501L278.501 313.501L278.501 313.502L278.5 313.502L278.499 313.502L278.498 313.503L278.498 313.503L278.497 313.503L278.496 313.504L278.495 313.504L278.494 313.504L278.494 313.505L278.493 313.505L278.492 313.505L278.491 313.506L278.49 313.506L278.49 313.506L278.489 313.507L278.488 313.507L278.487 313.507L278.486 313.508L278.486 313.508L278.485 313.508L278.484 313.509L278.483 313.509L278.482 313.509L278.482 313.51L278.481 313.51L278.48 313.51L278.479 313.511L278.478 313.511L278.478 313.512L278.477 313.512L278.476 313.512L278.475 313.513L278.474 313.513L278.474 313.513L278.473 313.514L278.472 313.514L278.471 313.514L278.47 313.515L278.47 313.515L278.469 313.515L278.468 313.516L278.467 313.516L278.466 313.516L278.466 313.517L278.465 313.517L278.464 313.517L278.463 313.518L278.462 313.518L278.462 313.518L278.461 313.519L278.46 313.519L278.459 313.519L278.458 313.52L278.458 313.52L278.457 313.52L278.456 313.521L278.455 313.521L278.454 313.521L278.454 313.522L278.453 313.522L278.452 313.522L278.451 313.523L278.45 313.523L278.45 313.523L278.449 313.524L278.448 313.524L278.447 313.525L278.446 313.525L278.446 313.525L278.445 313.526L278.444 313.526L278.443 313.526L278.442 313.527L278.442 313.527L278.441 313.527L278.44 313.528L278.439 313.528L278.438 313.528L278.438 313.529L278.437 313.529L278.436 313.529L278.435 313.53L278.434 313.53L278.434 313.53L278.433 313.531L278.432 313.531L278.431 313.531L278.43 313.532L278.43 313.532L278.429 313.532L278.428 313.533L278.427 313.533L278.427 313.533L278.426 313.534L278.425 313.534L278.424 313.534L278.423 313.535L278.423 313.535L278.422 313.535L278.421 313.536L278.42 313.536L278.419 313.536L278.419 313.537L278.418 313.537L278.417 313.538L278.416 313.538L278.415 313.538L278.415 313.539L278.414 313.539L278.413 313.539L278.412 313.54L278.411 313.54L278.411 313.54L278.41 313.541L278.409 313.541L278.408 313.541L278.407 313.542L278.407 313.542L278.406 313.542L278.405 313.543L278.404 313.543L278.403 313.543L278.403 313.544L278.402 313.544L278.401 313.544L278.4 313.545L278.399 313.545L278.399 313.545L278.398 313.546L278.397 313.546L278.396 313.546L278.395 313.547L278.395 313.547L278.394 313.547L278.393 313.548L278.392 313.548L278.391 313.548L278.391 313.549L278.39 313.549L278.389 313.55L278.388 313.55L278.387 313.55L278.387 313.551L278.386 313.551L278.385 313.551L278.384 313.552L278.383 313.552L278.383 313.552L278.382 313.553L278.381 313.553L278.38 313.553L278.379 313.554L278.379 313.554L278.378 313.554L278.377 313.555L278.376 313.555L278.375 313.555L278.375 313.556L278.374 313.556L278.373 313.556L278.372 313.557L278.371 313.557L278.371 313.557L278.37 313.558L278.369 313.558L278.368 313.558L278.367 313.559L278.367 313.559L278.366 313.559L278.365 313.56L278.364 313.56L278.363 313.56L278.363 313.561L278.362 313.561L278.361 313.561L278.36 313.562L278.359 313.562L278.359 313.563L278.358 313.563L278.357 313.563L278.356 313.564L278.355 313.564L278.355 313.564L278.354 313.565L278.353 313.565L278.352 313.565L278.352 313.566L278.351 313.566L278.35 313.566L278.349 313.567L278.348 313.567L278.348 313.567L278.347 313.568L278.346 313.568L278.345 313.568L278.344 313.569L278.344 313.569L278.343 313.569L278.342 313.57L278.341 313.57L278.34 313.57L278.34 313.571L278.339 313.571L278.338 313.571L278.337 313.572L278.336 313.572L278.336 313.572L278.335 313.573L278.334 313.573L278.333 313.573L278.332 313.574L278.332 313.574L278.331 313.574L278.33 313.575L278.329 313.575L278.328 313.576L278.328 313.576L278.327 313.576L278.326 313.577L278.325 313.577L278.324 313.577L278.324 313.578L278.323 313.578L278.322 313.578L278.321 313.579L278.32 313.579L278.32 313.579L278.319 313.58L278.318 313.58L278.317 313.58L278.316 313.581L278.316 313.581L278.315 313.581L278.314 313.582L278.313 313.582L278.312 313.582L278.312 313.583L278.311 313.583L278.31 313.583L278.309 313.584L278.308 313.584L278.308 313.584L278.307 313.585L278.306 313.585L278.305 313.585L278.304 313.586L278.304 313.586L278.303 313.586L278.302 313.587L278.301 313.587L278.3 313.587L278.3 313.588L278.299 313.588L278.298 313.589L278.297 313.589L278.296 313.589L278.296 313.59L278.295 313.59L278.294 313.59L278.293 313.591L278.292 313.591L278.292 313.591L278.291 313.592L278.29 313.592L278.289 313.592L278.288 313.593L278.288 313.593L278.287 313.593L278.286 313.594L278.285 313.594L278.284 313.594L278.284 313.595L278.283 313.595L278.282 313.595L278.281 313.596L278.281 313.596L278.28 313.596L278.279 313.597L278.278 313.597L278.277 313.597L278.277 313.598L278.276 313.598L278.275 313.598L278.274 313.599L278.273 313.599L278.273 313.599L278.272 313.6L278.271 313.6L278.27 313.6L278.269 313.601L278.269 313.601L278.268 313.602L278.267 313.602L278.266 313.602L278.265 313.603L278.265 313.603L278.264 313.603L278.263 313.604L278.262 313.604L278.261 313.604L278.261 313.605L278.26 313.605L278.259 313.605L278.258 313.606L278.257 313.606L278.257 313.606L278.256 313.607L278.255 313.607L278.254 313.607L278.253 313.608L278.253 313.608L278.252 313.608L278.251 313.609L278.25 313.609L278.249 313.609L278.249 313.61L278.248 313.61L278.247 313.61L278.246 313.611L278.245 313.611L278.245 313.611L278.244 313.612L278.243 313.612L278.242 313.612L278.241 313.613L278.241 313.613L278.24 313.613L278.239 313.614L278.238 313.614L278.237 313.615L278.237 313.615L278.236 313.615L278.235 313.616L278.234 313.616L278.233 313.616L278.233 313.617L278.232 313.617L278.231 313.617L278.23 313.618L278.229 313.618L278.229 313.618L278.228 313.619L278.227 313.619L278.226 313.619L278.225 313.62L278.225 313.62L278.224 313.62L278.223 313.621L278.222 313.621L278.221 313.621L278.221 313.622L278.22 313.622L278.219 313.622L278.218 313.623L278.217 313.623L278.217 313.623L278.216 313.624L278.215 313.624L278.214 313.624L278.213 313.625L278.213 313.625L278.212 313.625L278.211 313.626L278.21 313.626L278.21 313.627L278.209 313.627L278.208 313.627L278.207 313.628L278.206 313.628L278.206 313.628L278.205 313.629L278.204 313.629L278.203 313.629L278.202 313.63L278.202 313.63L278.201 313.63L278.2 313.631L278.199 313.631L278.198 313.631L278.198 313.632L278.197 313.632L278.196 313.632L278.195 313.633L278.194 313.633L278.194 313.633L278.193 313.634L278.192 313.634L278.191 313.634L278.19 313.635L278.19 313.635L278.189 313.635L278.188 313.636L278.187 313.636L278.186 313.636L278.186 313.637L278.185 313.637L278.184 313.637L278.183 313.638L278.182 313.638L278.182 313.638L278.181 313.639L278.18 313.639L278.179 313.64L278.178 313.64L278.178 313.64L278.177 313.641L278.176 313.641L278.175 313.641L278.174 313.642L278.174 313.642L278.173 313.642L278.172 313.643L278.171 313.643L278.17 313.643L278.17 313.644L278.169 313.644L278.168 313.644L278.167 313.645L278.166 313.645L278.166 313.645L278.165 313.646L278.164 313.646L278.163 313.646L278.162 313.647L278.162 313.647L278.161 313.647L278.16 313.648L278.159 313.648L278.158 313.648L278.158 313.649L278.157 313.649L278.156 313.649L278.155 313.65L278.154 313.65L278.154 313.65L278.153 313.651L278.152 313.651L278.151 313.651L278.15 313.652L278.15 313.652L278.149 313.653L278.122 313.664L278.095 313.674C276.688 314.183 274.838 315.163 272.55 316.481C271.387 317.151 270.163 317.877 268.85 318.656C267.549 319.428 266.161 320.252 264.659 321.123C258.721 324.57 251.492 328.476 243.425 331.326M278.517 313.495C278.503 313.499 278.489 313.504 278.476 313.508L278.163 312.558M278.163 312.558L243.425 331.326" stroke="url(#paint1_linear_2397_25870)" stroke-width="2"/>
<path d="M92.636 158.361C89.3438 159.322 86.3347 160.804 83.7963 162.792C81.1969 164.832 79.0707 167.447 77.6342 170.45C76.2376 173.396 75.5656 176.532 75.565 179.728C75.5644 182.924 76.214 186.173 77.4668 189.325C78.98 193.151 81.36 196.841 84.4851 200.107C87.6103 203.373 91.3179 206.144 95.675 208.348C100.032 210.552 104.632 211.93 109.413 212.465C114.193 213 118.376 212.6 122.366 211.453C125.631 210.506 128.585 209.055 131.117 207.088C133.649 205.12 135.705 202.668 137.18 199.768C138.673 196.805 139.416 193.506 139.448 190.204C139.48 186.903 138.797 183.689 137.535 180.489C136.007 176.636 133.591 172.912 130.409 169.606C127.067 166.138 123.1 163.313 118.781 161.213C114.378 159.088 109.837 157.819 105.429 157.348C100.929 156.873 96.55 157.238 92.6086 158.376L92.636 158.361Z" stroke="url(#paint2_linear_2397_25870)" stroke-width="2" stroke-miterlimit="10"/>
<path d="M333.959 147.872C331.523 153.057 328.114 158.381 323.936 163.164L323.934 163.165C319.854 167.818 314.969 172 309.375 174.969L308.11 175.64L308.092 175.503C298.918 180.015 287.944 181.346 275.562 176.845L275.552 176.842C272.462 175.68 269.255 174.197 265.951 172.261C265.951 172.261 265.951 172.261 265.95 172.261L266.456 171.398C254.851 164.609 247.788 157.151 243.142 149.904L333.959 147.872ZM333.959 147.872C334.899 145.934 335.667 144.001 336.332 142.129M333.959 147.872L335.391 141.79M146.639 65.2568C143.071 68.768 140.304 73.3252 138.544 78.2576L138.542 78.2623C136.833 83.1279 136.083 88.4227 136.602 93.4582C137.121 98.4937 138.862 103.264 142.077 107.245L142.08 107.25C143.059 108.448 144.173 109.574 145.42 110.628L145.426 110.633L145.432 110.638C154.194 117.82 164.316 119.85 173.73 119.497C183.578 119.131 192.687 116.225 198.692 113.889C199.18 113.706 199.631 113.53 200.066 113.361C200.612 113.148 201.131 112.945 201.664 112.753L201.666 112.752C206.331 111.048 209.433 110.294 212.71 110.723C216.015 111.156 219.626 112.81 225.241 116.261C226.702 117.161 227.855 118.336 228.857 119.817L228.857 119.818C230.767 122.638 232.033 126.385 233.553 130.884C233.767 131.518 233.986 132.166 234.212 132.829C236.027 138.139 238.285 144.215 242.301 150.445L147.342 65.9683M146.639 65.2568C146.639 65.2564 146.64 65.2559 146.64 65.2555L147.342 65.9683M146.639 65.2568C146.639 65.257 146.639 65.2571 146.639 65.2572L147.342 65.9683M146.639 65.2568C148.277 63.6372 150.111 62.216 152.108 61.1014M147.342 65.9683C148.924 64.4038 150.687 63.0391 152.598 61.9733M152.108 61.1014C152.107 61.102 152.106 61.1025 152.106 61.103L152.598 61.9733M152.108 61.1014C154.434 59.785 156.991 58.695 159.71 57.8621L159.717 57.8599L159.717 57.8599C169.092 55.0656 180.368 55.7654 190.908 63.5486L190.911 63.5513C192.51 64.7433 194.095 66.0734 195.664 67.6252M152.108 61.1014C152.109 61.1009 152.11 61.1004 152.111 61.0999L152.598 61.9733M152.598 61.9733L195.664 67.6252M195.664 67.6252C195.663 67.6247 195.663 67.6242 195.662 67.6237L194.961 68.3371M195.664 67.6252L160.003 58.8183C169.111 56.1034 180.055 56.7771 190.314 64.3531C191.88 65.5211 193.43 66.8215 194.961 68.3371M195.664 67.6252C195.664 67.6255 195.665 67.6259 195.665 67.6262L194.961 68.3371M195.664 67.6252C200.982 72.8509 205.3 80.0107 212.316 91.9868L212.317 91.988C214.803 96.2455 218.248 100.903 222.399 104.02C226.528 107.12 231.265 108.642 236.485 106.873L236.539 106.855L236.594 106.843C236.607 106.84 236.614 106.838 236.626 106.833C236.647 106.824 236.672 106.812 236.745 106.776L236.79 106.754L236.837 106.736C238.044 106.285 239.636 105.422 241.618 104.253C242.624 103.66 243.677 103.022 244.806 102.336C245.937 101.651 247.144 100.918 248.458 100.139C253.61 97.0808 259.895 93.6045 266.928 91.0361L266.932 91.0347C278.299 86.9368 291.7 85.1595 305.5 91.5436L305.516 91.5511L305.532 91.5593C305.681 91.6348 305.828 91.7038 305.991 91.7801L305.997 91.7828C306.151 91.8548 306.319 91.9335 306.493 92.0215M194.961 68.3371C200.166 73.4503 204.416 80.4794 211.453 92.4922C216.489 101.116 225.555 111.633 236.806 107.82C236.955 107.788 237.055 107.739 237.187 107.673L237.188 107.673C239.137 106.945 241.903 105.267 245.332 103.187C251.042 99.7237 258.592 95.145 267.271 91.9754C278.49 87.9308 291.6 86.2153 305.08 92.4512C305.245 92.5349 305.406 92.6103 305.567 92.6858C305.728 92.7612 305.889 92.8366 306.054 92.9203M306.493 92.0215C306.489 92.0194 306.484 92.0174 306.48 92.0153L306.054 92.9203M306.493 92.0215C306.497 92.0238 306.502 92.0261 306.507 92.0284L306.054 92.9203M306.493 92.0215C321.366 99.0136 330.901 106.096 335.6 114.329M306.054 92.9203C320.888 99.8924 330.189 106.867 334.732 114.825M334.732 114.825L335.6 114.328C335.6 114.329 335.6 114.329 335.6 114.329M334.732 114.825C337.422 119.527 338.469 124.584 338.04 130.162M334.732 114.825L335.6 114.329C335.6 114.329 335.6 114.329 335.6 114.329M335.6 114.329C338.396 119.217 339.48 124.475 339.037 130.238M338.04 130.162L339.038 130.236C339.038 130.237 339.037 130.237 339.037 130.238M338.04 130.162C337.771 133.804 336.871 137.675 335.391 141.79M338.04 130.162L339.037 130.239C339.037 130.239 339.037 130.238 339.037 130.238M339.037 130.238C338.76 133.989 337.835 137.949 336.332 142.129M335.391 141.79L336.333 142.124C336.333 142.126 336.332 142.127 336.332 142.129M335.391 141.79L336.332 142.129" stroke="url(#paint3_linear_2397_25870)" stroke-width="2"/>
<path d="M42.6109 100.685L42.7664 101.497H42.8174C43.153 103.888 43.0324 106.456 42.4023 108.938C41.6985 111.71 40.3563 114.499 38.4745 117.01C36.5936 119.519 34.1809 121.74 31.3455 123.423L31.3425 123.424C28.6438 125.039 25.698 126.113 22.7208 126.615L22.7138 126.616C20.2815 127.043 17.8888 127.043 15.4565 126.616C13.0264 126.189 10.6477 125.301 8.67138 124.006C6.67455 122.696 5.03834 121.076 3.82483 119.254C2.60719 117.427 1.77216 115.389 1.35424 113.208L1.35354 113.205C0.828092 110.516 0.861499 107.834 1.63536 104.849C2.41126 101.857 3.78689 99.1091 5.77395 96.5644C7.76036 94.0206 10.1023 92.0117 12.7752 90.3918C15.4291 88.7834 18.3345 87.7444 21.2798 87.2422C23.6834 86.8498 26.1552 86.8508 28.4787 87.2419C30.7988 87.6325 32.9957 88.41 35.0486 89.7103C37.1126 91.0178 38.8196 92.6735 40.1057 94.5683C41.3231 96.3963 42.1935 98.5075 42.6109 100.685Z" stroke="url(#paint4_linear_2397_25870)" stroke-width="2"/>
</g>
<defs>
<linearGradient id="paint0_linear_2397_25870" x1="220.527" y1="379.998" x2="314.18" y2="425.705" gradientUnits="userSpaceOnUse">
<stop stop-color="#ED50B4"/>
<stop offset="1" stop-color="#4C9AFF"/>
</linearGradient>
<linearGradient id="paint1_linear_2397_25870" x1="349.572" y1="276.237" x2="176.532" y2="300.954" gradientUnits="userSpaceOnUse">
<stop stop-color="#00C7E5"/>
<stop offset="1" stop-color="#79F2C0"/>
</linearGradient>
<linearGradient id="paint2_linear_2397_25870" x1="116.868" y1="160.082" x2="90.811" y2="211.253" gradientUnits="userSpaceOnUse">
<stop stop-color="#00C7E5"/>
<stop offset="1" stop-color="#D62587"/>
</linearGradient>
<linearGradient id="paint3_linear_2397_25870" x1="211.659" y1="50.9359" x2="242.038" y2="197.582" gradientUnits="userSpaceOnUse">
<stop stop-color="#00C7E5"/>
<stop offset="1" stop-color="#79F2C0"/>
</linearGradient>
<linearGradient id="paint4_linear_2397_25870" x1="4.21806" y1="106.358" x2="41.5868" y2="116.475" gradientUnits="userSpaceOnUse">
<stop stop-color="#00C7E5"/>
<stop offset="1" stop-color="#79F2C0"/>
</linearGradient>
<clipPath id="clip0_2397_25870">
<rect width="262" height="551" fill="white"/>
</clipPath>
</defs>
</svg>
