<svg width="180" height="627" viewBox="0 0 180 627" fill="none" xmlns="http://www.w3.org/2000/svg">
<g clip-path="url(#clip0_2397_25871)">
<path d="M-43.4961 173.321C-47.6312 169.353 -51.5871 164.418 -54.7842 158.925L-54.7852 158.924C-57.8903 153.567 -60.2913 147.596 -61.3166 141.342L-61.5483 139.929L-61.412 139.955C-62.7562 129.813 -60.5086 118.98 -52.2841 108.678L-52.2773 108.669C-50.1881 106.11 -47.758 103.544 -44.8664 101.03L-43.4961 173.321ZM-43.4961 173.321C-41.9593 174.833 -40.3726 176.181 -38.8099 177.41M-43.4961 173.321L-12.2305 185.608C-17.7577 186.696 -23.0886 186.041 -28.4084 183.778C-31.8744 182.315 -35.3307 180.172 -38.8099 177.41M-38.8099 177.41C-38.8104 177.41 -38.811 177.409 -38.8115 177.409L-38.1897 176.625L-38.8079 177.412C-38.8085 177.411 -38.8092 177.411 -38.8099 177.41ZM18.9759 164.365L18.9631 164.377C18.8438 164.494 18.7313 164.612 18.6069 164.742L18.6026 164.746C18.4852 164.869 18.3568 165.004 18.2176 165.141C6.83582 177.008 -2.92501 183.784 -12.23 185.607L18.9759 164.365ZM18.9759 164.365L18.9882 164.352M18.9759 164.365L18.9882 164.352M18.9882 164.352C29.4508 153.307 32.0512 140.031 31.8018 127.941L31.8017 127.937M18.9882 164.352L31.8017 127.937M31.8017 127.937C31.6161 120.446 30.331 113.374 29.0803 107.51C28.7614 106.015 28.4533 104.636 28.1648 103.345C27.8765 102.054 27.6078 100.852 27.3675 99.7083C26.8938 97.4549 26.5842 95.6685 26.5425 94.3799L26.5409 94.3298M31.8017 127.937L26.5409 94.3298M26.5409 94.3298L26.5342 94.28M26.5409 94.3298L26.5342 94.28M26.5342 94.28C26.5235 94.1994 26.5202 94.1712 26.5188 94.1482C26.518 94.1353 26.5181 94.1281 26.5195 94.1152L26.5259 94.0587M26.5342 94.28L26.5259 94.0587M26.5259 94.0587L26.5258 94.0019M26.5259 94.0587L26.5258 94.0019M26.5258 94.0019C26.5184 88.4859 29.4757 84.4797 33.7337 81.5564C38.0151 78.6169 43.5307 76.8396 48.3606 75.8437L48.3619 75.8435M26.5258 94.0019L48.3619 75.8435M48.3619 75.8435C61.9556 73.0214 70.1218 71.2169 76.7751 67.8447C78.7472 66.8538 80.5145 65.776 82.1554 64.6411L82.1591 64.6385M48.3619 75.8435L82.1591 64.6385M82.1591 64.6385C92.9053 57.1336 97.1738 46.664 97.5228 36.8808L97.5229 36.8808M82.1591 64.6385L97.5229 36.8808M97.5229 36.8808L97.5231 36.8732M97.5229 36.8808L97.5231 36.8732M97.5231 36.8732C97.603 34.0287 97.3874 31.2555 96.8835 28.6287C96.4659 26.3781 95.7052 24.1846 94.6939 22.1132C92.5071 17.6069 89.0728 13.5257 84.9611 10.2787L84.9572 10.2756M97.5231 36.8732L84.9572 10.2756M84.9572 10.2756C80.8924 7.09828 76.1142 4.69328 71.1757 3.57495C66.2373 2.45666 61.1593 2.58187 56.3584 4.35628L56.3531 4.35827M84.9572 10.2756L56.3531 4.35827M56.3531 4.35827C54.9043 4.90311 53.481 5.59953 52.0831 6.44517L52.0767 6.44904M56.3531 4.35827L52.0767 6.44904M52.0767 6.44904L52.0703 6.45303M52.0767 6.44904L52.0703 6.45303M52.0703 6.45303C42.462 12.4644 37.3025 21.4139 34.6264 30.4539C31.8246 39.9094 31.6664 49.4774 31.9603 55.9194C31.9776 56.4404 32.0001 56.9245 32.0218 57.3907C32.0491 57.9764 32.075 58.5338 32.0875 59.1005L32.0875 59.1034M52.0703 6.45303L32.0875 59.1034M32.0875 59.1034C32.2111 64.0716 31.9336 67.2545 30.4788 70.2251C29.0115 73.2211 26.29 76.1163 21.2235 80.3372C19.9036 81.4348 18.4217 82.1528 16.6971 82.6287L16.6962 82.629M32.0875 59.1034L16.6962 82.629M16.6962 82.629C13.4135 83.5383 9.45764 83.5399 4.70693 83.5418M16.6962 82.629L4.70693 83.5418M4.70693 83.5418C4.03819 83.5421 3.3537 83.5424 2.65313 83.5452M4.70693 83.5418L2.65313 83.5452M2.65313 83.5452C-2.95943 83.5678 -9.44037 83.7654 -16.6289 85.5812M2.65313 83.5452L-16.6289 85.5812M-16.6289 85.5812C-25.1397 87.7086 -34.6073 92.0966 -44.8661 101.03L-16.6289 85.5812Z" stroke="url(#paint0_linear_2397_25871)" stroke-width="2"/>
<path d="M-31.47 585.58L-31.332 586.098C-30.137 590.585 -28.2352 595.169 -24.8222 598.076L-24.8219 598.076C-20.5336 601.732 -16.9651 604.043 -13.3732 605.26C-9.79661 606.473 -6.00985 606.681 -1.24425 605.987L-1.23681 605.986L-1.23681 605.986C0.915898 605.689 3.29017 605.185 5.98068 604.546C8.23601 603.999 10.3029 602.839 12.1796 601.227L12.1813 601.226C16.9694 597.132 20.6149 590.138 23.8747 582.562C24.9443 580.076 25.9738 577.522 26.9878 575.007C29.0202 569.965 30.9905 565.078 33.0971 561.2C34.5892 558.413 36.4198 556.317 38.5366 554.717C42.9812 551.353 48.7829 550.102 55.8633 548.6L56.2243 548.524C63.2923 547.025 71.8205 545.216 82.1139 540.937L82.1153 540.937C86.1204 539.279 89.6001 537.365 92.61 535.25C108.819 523.855 111.304 506.493 106.9 490.226C106.694 489.491 106.491 488.768 106.263 488.021L106.263 488.018C103.525 478.957 99.4323 471.382 96.0193 466.069C94.3139 463.414 92.7811 461.329 91.6774 459.91C91.1256 459.201 90.6813 458.658 90.3766 458.295C90.2243 458.114 90.1068 457.977 90.0283 457.887C89.9891 457.841 89.9596 457.808 89.9403 457.786L89.9191 457.762L89.9144 457.757L89.9137 457.756L89.9136 457.756L89.8784 457.717L89.8474 457.674C87.1393 453.921 85.8138 451.082 85.4505 448.35C85.088 445.624 85.7053 443.131 86.5846 440.171M-31.47 585.58L87.5427 440.456M-31.47 585.58L-31.5443 585.555M-31.47 585.58L-31.5443 585.555M86.5846 440.171L87.5427 440.456M86.5846 440.171C86.5843 440.172 86.5841 440.173 86.5839 440.173L87.5427 440.456M86.5846 440.171C86.7593 439.578 86.9453 438.97 87.139 438.337C87.607 436.807 88.1196 435.132 88.6252 433.166L88.6255 433.165C89.4017 430.162 91.2492 427.337 93.5797 424.62C95.9133 421.9 98.8007 419.213 101.732 416.509L102.105 416.165C107.913 410.81 113.79 405.392 116.58 399.2L116.586 399.186L116.593 399.173C116.901 398.54 117.12 397.898 117.295 397.236L117.296 397.229C118.155 394.073 117.672 390.949 116.167 388.098C114.652 385.229 112.154 382.64 108.99 380.658C105.827 378.677 101.994 377.291 97.9234 376.79M87.5427 440.456C87.7127 439.879 87.896 439.28 88.0882 438.652C88.5584 437.115 89.0818 435.404 89.5933 433.416C91.0716 427.696 96.8198 422.397 102.865 416.824C108.607 411.532 114.616 405.993 117.491 399.611C117.835 398.905 118.074 398.198 118.261 397.492C119.194 394.063 118.66 390.679 117.051 387.631C115.442 384.583 112.81 381.871 109.52 379.81C106.23 377.75 102.256 376.315 98.042 375.797M97.9234 376.79C97.925 376.79 97.9265 376.79 97.9281 376.791L98.042 375.797M97.9234 376.79C93.7494 376.312 89.34 376.658 85.5962 378.397C80.0106 381.006 77.0072 386.265 75.7545 392.373C74.5005 398.488 75.0375 405.319 76.4226 410.77L76.4229 410.771C77.4408 414.795 77.9634 418.503 77.9194 422.044L77.9193 422.047C77.8002 429.777 74.7415 436.414 67.6932 442.65C64.6465 445.368 60.555 447.314 56.1218 449.034C54.0037 449.856 51.7825 450.635 49.5385 451.423L49.2015 451.541C46.8375 452.37 44.4488 453.213 42.0939 454.137C35.3102 456.814 28.8911 460.114 24.3951 465.526L24.3944 465.526C18.1303 473.051 15.8584 483.212 13.7562 494.244C13.6272 494.921 13.4987 495.601 13.3696 496.284C11.9717 503.68 10.5135 511.396 7.83318 518.645C3.97215 529.106 -1.9793 536.689 -8.69115 543.604L-8.69125 543.604C-11.394 546.388 -14.2314 549.069 -17.1147 551.776C-17.3366 551.985 -17.5588 552.193 -17.7813 552.402C-20.4534 554.91 -23.1607 557.452 -25.8571 560.148C-33.1871 567.511 -33.5625 577.523 -31.5443 585.555M97.9234 376.79C97.9223 376.79 97.9211 376.79 97.92 376.79L98.042 375.797M98.042 375.797C93.7493 375.304 89.1382 375.649 85.1746 377.49C73.2313 383.067 72.6265 399.89 75.4538 411.017C76.4561 414.979 76.9625 418.598 76.9198 422.032C76.8055 429.448 73.8939 435.829 67.0291 441.902C62.7373 445.732 56.1688 448.037 49.2022 450.481C46.7328 451.347 44.2133 452.231 41.7275 453.206C34.9052 455.899 28.289 459.274 23.6264 464.886C17.1725 472.639 14.87 483.059 12.7742 494.056L-31.5443 585.555M107.863 489.96L107.863 489.959C107.657 489.224 107.451 488.49 107.219 487.729C101.677 469.381 90.6578 457.088 90.6578 457.088L107.863 489.96Z" stroke="url(#paint1_linear_2397_25871)" stroke-width="2"/>
<path d="M101.888 102.303L102.044 103.115H102.095C102.43 105.509 102.31 108.079 101.68 110.564C100.976 113.34 99.6335 116.132 97.7515 118.645C95.8706 121.157 93.4579 123.38 90.6225 125.065L90.6195 125.066C87.9208 126.682 84.9751 127.758 81.998 128.26L81.991 128.261C79.5588 128.689 77.1662 128.689 74.734 128.261C72.304 127.834 69.9254 126.945 67.9491 125.648C65.9523 124.338 64.316 122.715 63.1024 120.892C61.8847 119.063 61.0496 117.023 60.6316 114.839L60.6309 114.836C60.1054 112.143 60.1388 109.458 60.9128 106.471C61.6887 103.475 63.0645 100.724 65.0516 98.1768C67.0381 95.6302 69.3801 93.6193 72.0529 91.9978C74.7068 90.3878 77.6122 89.3477 80.5573 88.845C82.9608 88.4523 85.4325 88.4532 87.7559 88.8448C90.0759 89.2357 92.2727 90.0139 94.3255 91.3156C96.3895 92.6243 98.0966 94.2817 99.3827 96.1786C100.6 98.0086 101.471 100.122 101.888 102.303Z" stroke="url(#paint2_linear_2397_25871)" stroke-width="2"/>
<path d="M105.316 272.013L105.81 271.871C109.618 270.77 113.866 270.412 118.246 270.875C122.538 271.335 126.968 272.572 131.269 274.65C135.487 276.704 139.357 279.463 142.612 282.845C145.71 286.067 148.052 289.686 149.529 293.413C150.75 296.516 151.402 299.605 151.371 302.761C151.341 305.924 150.63 309.074 149.211 311.893C147.804 314.66 145.845 317.001 143.427 318.882C141.005 320.765 138.168 322.165 135.011 323.081C131.15 324.191 127.099 324.582 122.447 324.061C117.787 323.539 113.302 322.194 109.05 320.041C104.792 317.886 101.177 315.179 98.1311 311.993C95.0897 308.811 92.7828 305.225 91.32 301.523L91.3194 301.522C90.1098 298.476 89.4876 295.348 89.4882 292.284C89.4888 289.228 90.1301 286.236 91.4606 283.426C92.829 280.564 94.8558 278.067 97.3367 276.118L105.316 272.013ZM105.316 272.013C102.338 272.945 99.6296 274.32 97.3368 276.118L105.316 272.013Z" stroke="url(#paint3_linear_2397_25871)" stroke-width="2" stroke-miterlimit="10"/>
</g>
<defs>
<linearGradient id="paint0_linear_2397_25871" x1="87.478" y1="88.352" x2="-61.2199" y2="70.2668" gradientUnits="userSpaceOnUse">
<stop stop-color="#00C7E5"/>
<stop offset="1" stop-color="#79F2C0"/>
</linearGradient>
<linearGradient id="paint1_linear_2397_25871" x1="86.0357" y1="543.976" x2="4.43618" y2="441.032" gradientUnits="userSpaceOnUse">
<stop stop-color="#00C7E5"/>
<stop offset="1" stop-color="#D62587"/>
</linearGradient>
<linearGradient id="paint2_linear_2397_25871" x1="63.4954" y1="107.982" x2="100.869" y2="118.09" gradientUnits="userSpaceOnUse">
<stop stop-color="#00C7E5"/>
<stop offset="1" stop-color="#79F2C0"/>
</linearGradient>
<linearGradient id="paint3_linear_2397_25871" x1="129.792" y1="272.618" x2="103.692" y2="323.82" gradientUnits="userSpaceOnUse">
<stop stop-color="#00C7E5"/>
<stop offset="1" stop-color="#D62587"/>
</linearGradient>
<clipPath id="clip0_2397_25871">
<rect width="180" height="627" fill="white"/>
</clipPath>
</defs>
</svg>
