<svg width="24" height="24" viewBox="0 0 24 24" fill="none" xmlns="http://www.w3.org/2000/svg">
<rect width="24" height="24" fill="white" fill-opacity="0.01"/>
<path fill-rule="evenodd" clip-rule="evenodd" d="M16.4362 15.0844L20.3762 19.0944C20.5527 19.2852 20.648 19.5372 20.6419 19.797C20.6358 20.0569 20.5288 20.3041 20.3435 20.4864C20.1583 20.6686 19.9093 20.7716 19.6494 20.7735C19.3895 20.7754 19.1391 20.676 18.9512 20.4964L15.0132 16.4904C13.4938 17.6351 11.5961 18.1595 9.70452 17.9576C7.81291 17.7557 6.0687 16.8426 4.82506 15.403C3.58142 13.9634 2.9313 12.1051 3.00633 10.2042C3.08136 8.30333 3.87593 6.50199 5.22916 5.16493C6.58238 3.82787 8.39314 3.055 10.2948 3.00282C12.1964 2.95065 14.0468 3.62306 15.4714 4.8839C16.8959 6.14475 17.788 7.89981 17.9672 9.79371C18.1463 11.6876 17.5991 13.5788 16.4362 15.0844ZM10.5002 15.9994C11.9589 15.9994 13.3579 15.42 14.3893 14.3885C15.4208 13.3571 16.0002 11.9581 16.0002 10.4994C16.0002 9.04073 15.4208 7.64178 14.3893 6.61033C13.3579 5.57888 11.9589 4.99942 10.5002 4.99942C9.04155 4.99942 7.64261 5.57888 6.61116 6.61033C5.57971 7.64178 5.00024 9.04073 5.00024 10.4994C5.00024 11.9581 5.57971 13.3571 6.61116 14.3885C7.64261 15.42 9.04155 15.9994 10.5002 15.9994Z" fill="white"/>
</svg>
