<svg width="268" height="151" viewBox="0 0 268 151" fill="none" xmlns="http://www.w3.org/2000/svg">
<rect width="268" height="151" fill="url(#paint0_linear_3182_1137)"/>
<path d="M134 58.6094C130.561 58.6094 127.198 59.6294 124.338 61.5403C121.478 63.4513 119.249 66.1675 117.933 69.3453C116.616 72.5232 116.272 76.02 116.943 79.3936C117.614 82.7671 119.27 85.866 121.703 88.2982C124.135 90.7304 127.234 92.3868 130.607 93.0578C133.981 93.7289 137.478 93.3845 140.656 92.0682C143.833 90.7519 146.55 88.5228 148.461 85.6628C150.372 82.8028 151.392 79.4404 151.392 76.0007C151.392 71.3882 149.559 66.9647 146.298 63.7032C143.036 60.4417 138.613 58.6094 134 58.6094V58.6094ZM128.706 82.764V69.2374L142.319 76.0007L128.706 82.764Z" fill="#091E42"/>
<defs>
<linearGradient id="paint0_linear_3182_1137" x1="268" y1="2.0321e-05" x2="-15.5464" y2="111.446" gradientUnits="userSpaceOnUse">
<stop stop-color="#57D9A3"/>
<stop offset="1" stop-color="#0065FF"/>
</linearGradient>
</defs>
</svg>
