<svg width="368" height="207" viewBox="0 0 368 207" fill="none" xmlns="http://www.w3.org/2000/svg">
<rect width="368" height="207" fill="#253858"/>
<rect width="368" height="207" fill="url(#paint0_radial_2539_6798)"/>
<path d="M184 81.7393C179.597 81.7393 175.293 83.0448 171.633 85.4909C167.972 87.9369 165.119 91.4136 163.434 95.4813C161.749 99.5489 161.308 104.025 162.167 108.343C163.026 112.661 165.146 116.628 168.259 119.741C171.372 122.854 175.339 124.974 179.657 125.833C183.975 126.692 188.451 126.251 192.519 124.566C196.587 122.882 200.063 120.028 202.509 116.368C204.955 112.707 206.261 108.403 206.261 104C206.261 98.0962 203.916 92.434 199.741 88.2593C195.566 84.0846 189.904 81.7393 184 81.7393V81.7393ZM177.223 112.657V95.3431L194.648 104L177.223 112.657Z" fill="#253858"/>
<defs>
<radialGradient id="paint0_radial_2539_6798" cx="0" cy="0" r="1" gradientUnits="userSpaceOnUse" gradientTransform="translate(184) rotate(90) scale(212.09 377.048)">
<stop stop-color="#ED50B4"/>
<stop offset="1" stop-color="#6555C0"/>
</radialGradient>
</defs>
</svg>
