<svg width="32" height="32" viewBox="0 0 32 32" fill="none" xmlns="http://www.w3.org/2000/svg">
<path d="M26.476 2.66602H5.52365C3.94627 2.66602 2.6665 3.94578 2.6665 5.52316V26.4755C2.6665 28.0529 3.94627 29.3327 5.52365 29.3327H26.476C28.0534 29.3327 29.3332 28.0529 29.3332 26.4755V5.52316C29.3332 3.94578 28.0534 2.66602 26.476 2.66602ZM23.5653 12.1184C23.5772 12.2851 23.5772 12.4577 23.5772 12.6243C23.5772 17.7851 19.6486 23.7315 12.4701 23.7315C10.2558 23.7315 8.20222 23.0886 6.47603 21.9815C6.7915 22.0172 7.09508 22.0291 7.4165 22.0291C9.24389 22.0291 10.9225 21.4101 12.2617 20.3624C10.5475 20.3267 9.10698 19.2017 8.61293 17.6541C9.21412 17.7434 9.75579 17.7434 10.3748 17.5827C8.58912 17.2196 7.24984 15.6482 7.24984 13.7493V13.7017C7.76769 13.9934 8.37484 14.172 9.01174 14.1958C8.47628 13.8396 8.03733 13.3564 7.73405 12.7893C7.43077 12.2222 7.27259 11.5889 7.27365 10.9458C7.27365 10.2196 7.46412 9.55292 7.80341 8.97554C9.72603 11.3446 12.6129 12.8922 15.851 13.0589C15.2975 10.4101 17.2796 8.26125 19.6606 8.26125C20.7856 8.26125 21.7975 8.73149 22.5117 9.4934C23.3927 9.32673 24.2379 8.99935 24.9879 8.55292C24.6963 9.45768 24.0832 10.2196 23.2736 10.7017C24.0594 10.6184 24.8213 10.3982 25.5236 10.0946C24.9939 10.8743 24.3272 11.5648 23.5653 12.1184Z" fill="white"/>
</svg>
