<svg width="120" height="25" viewBox="0 0 120 25" fill="none" xmlns="http://www.w3.org/2000/svg">
<path d="M12.0002 3.83984C10.3491 3.83984 8.73516 4.32944 7.36237 5.24671C5.98958 6.16398 4.91962 7.46773 4.28779 8.9931C3.65596 10.5185 3.49065 12.1969 3.81275 13.8162C4.13485 15.4356 4.9299 16.923 6.09737 18.0905C7.26483 19.2579 8.75227 20.053 10.3716 20.3751C11.9909 20.6972 13.6694 20.5319 15.1947 19.9001C16.7201 19.2682 18.0239 18.1983 18.9411 16.8255C19.8584 15.4527 20.348 13.8387 20.348 12.1877C20.348 9.97369 19.4685 7.85039 17.903 6.28487C16.3375 4.71934 14.2142 3.83984 12.0002 3.83984V3.83984ZM9.45872 15.434V8.94129L15.9932 12.1877L9.45872 15.434Z" fill="#ABF5D1"/>
<path d="M35.056 17.1875H37.552L40.032 8.8195L42.496 17.1875H45.168L48.224 6.6755H46.128L43.888 15.6195L41.2 6.6755H39.024L36.336 15.6195L34.112 6.6755H32.032L35.056 17.1875ZM50.5485 13.3315C50.5485 11.8275 51.2845 10.9955 52.5325 10.9955C53.6525 10.9955 54.5965 11.7155 54.5965 13.1555V13.3955C54.5965 14.9315 53.6525 15.6835 52.5325 15.6835C51.3165 15.6835 50.5485 14.9155 50.5485 13.3315ZM54.5965 17.1875H56.4525V9.5075H54.5965V10.9955C54.1325 9.9075 53.2685 9.3475 52.0525 9.3475C49.8285 9.3475 48.6925 11.1875 48.6925 13.3155C48.6925 15.6195 49.7965 17.3475 51.9885 17.3475C53.1565 17.3475 54.1165 16.7715 54.5965 15.6515V17.1875ZM61.3028 14.4675V11.1715H63.5428V9.5075H61.3028V7.4915H59.4628V9.5075H58.1668V11.1715H59.4628V14.6115C59.4628 16.2275 60.3748 17.3155 62.2468 17.3155C62.8228 17.3155 63.2228 17.2515 63.5588 17.1555V15.4755C63.2868 15.5235 62.9028 15.5715 62.5508 15.5715C61.7188 15.5715 61.3028 15.1235 61.3028 14.4675ZM71.4035 15.3475C70.8435 15.5075 70.2835 15.6515 69.4355 15.6515C67.6435 15.6515 66.8435 14.7395 66.8435 13.3315C66.8435 11.9075 67.6275 11.0275 69.3395 11.0275C70.1715 11.0275 70.7795 11.1715 71.3555 11.3795V9.7795C70.6995 9.4755 70.1395 9.3475 69.2275 9.3475C66.3955 9.3475 64.9875 11.0275 64.9875 13.3315C64.9875 15.6835 66.3955 17.3475 69.2595 17.3475C70.1555 17.3475 70.9075 17.1875 71.4035 16.9315V15.3475ZM80.8253 12.8035C80.8253 10.6275 79.9293 9.3475 78.0413 9.3475C76.8733 9.3475 75.8973 9.9395 75.4013 10.9635V5.8435H73.5293V17.1875H75.4013V13.0435C75.4013 11.6995 76.1693 10.9955 77.3533 10.9955C78.4573 10.9955 78.9533 11.6035 78.9533 12.9155V17.1875H80.8253V12.8035ZM94.4034 12.8035C94.4034 10.6275 93.5074 9.3475 91.6194 9.3475C90.4514 9.3475 89.4754 9.9395 88.9794 10.9635V9.5075H87.1074V17.1875H88.9794V13.0435C88.9794 11.6995 89.7474 10.9955 90.9314 10.9955C92.0354 10.9955 92.5314 11.6035 92.5314 12.9155V17.1875H94.4034V12.8035ZM100.364 9.3475C97.8196 9.3475 96.3156 11.0435 96.3156 13.3315C96.3156 15.6515 97.8196 17.3475 100.364 17.3475C102.908 17.3475 104.412 15.6515 104.412 13.3315C104.412 11.0435 102.908 9.3475 100.364 9.3475ZM100.364 15.6835C98.8436 15.6835 98.1716 14.5635 98.1716 13.3315C98.1716 12.0835 98.8436 11.0115 100.364 11.0115C101.884 11.0115 102.556 12.0835 102.556 13.3315C102.556 14.5635 101.884 15.6835 100.364 15.6835ZM116.443 17.1875L119.211 9.5075H117.243L115.979 13.2835L115.211 16.1635L114.283 13.1395L113.003 9.5075H111.195L109.915 13.1395L108.987 16.1635L108.219 13.2835L106.955 9.5075H104.987L107.771 17.1875H110.219L111.307 14.0195L112.107 11.1235L112.891 14.0195L113.979 17.1875H116.443Z" fill="#ABF5D1"/>
</svg>
