<svg width="50" height="50" viewBox="0 0 50 50" fill="none" xmlns="http://www.w3.org/2000/svg">
<g filter="url(#filter0_b_1799_13851)">
<rect width="50" height="50" rx="25" fill="url(#paint0_linear_1799_13851)"/>
<path opacity="0.5" d="M34.424 17.7969C35.1127 17.7969 35.671 17.2386 35.671 16.5499C35.671 15.8809 35.1442 15.335 34.4827 15.3043L34.424 15.303H24.1713C23.4826 15.303 22.9243 15.8612 22.9243 16.5499C22.9243 17.2189 23.4512 17.7649 24.1126 17.7955L24.1713 17.7969H34.424Z" fill="white"/>
<path opacity="0.5" d="M34.4236 23.8945C35.1122 23.8945 35.6705 24.4528 35.6705 25.1415C35.6705 25.8105 35.1437 26.3564 34.4823 26.3871L34.4236 26.3884H24.1708C23.4821 26.3884 22.9238 25.8302 22.9238 25.1415C22.9238 24.4725 23.4507 23.9265 24.1121 23.8959L24.1708 23.8945H34.4236Z" fill="white"/>
<path opacity="0.5" d="M34.4245 32.2031C35.1132 32.2031 35.6715 32.7614 35.6715 33.4501C35.6715 34.1191 35.1447 34.665 34.4832 34.6957L34.4245 34.697H24.1718C23.4831 34.697 22.9248 34.1388 22.9248 33.4501C22.9248 32.7811 23.4516 32.2351 24.1131 32.2045L24.1718 32.2031H34.4245Z" fill="white"/>
<path fill-rule="evenodd" clip-rule="evenodd" d="M35.9492 39.1359C37.7092 39.1359 39.1359 37.7092 39.1359 35.9492V13.7805C39.1359 12.0205 37.7092 10.5938 35.9492 10.5938H13.7805C12.0205 10.5938 10.5938 12.0205 10.5938 13.7805V35.9492C10.5938 37.7092 12.0205 39.1359 13.7805 39.1359H35.9492ZM18.857 14.1444C19.3452 13.6586 20.1348 13.6605 20.6206 14.1487C21.0912 14.6216 21.1041 15.3774 20.6606 15.8659L20.6163 15.9123L17.8314 18.6835C17.3601 19.1525 16.6075 19.1672 16.1186 18.7275L16.0722 18.6835L14.423 17.0424C13.9348 16.5566 13.9329 15.767 14.4187 15.2788C14.8893 14.8059 15.645 14.7893 16.1357 15.2304L16.1823 15.2745L16.9518 16.0401L18.857 14.1444ZM20.6214 22.463C20.1356 21.9748 19.346 21.9728 18.8578 22.4587L16.9526 24.3544L16.1831 23.5888L16.1365 23.5447C15.6459 23.1036 14.8902 23.1202 14.4195 23.5931C13.9337 24.0813 13.9356 24.8709 14.4238 25.3567L16.073 26.9978L16.1195 27.0418C16.6083 27.4815 17.361 27.4668 17.8323 26.9978L20.6171 24.2266L20.6614 24.1801C21.1049 23.6917 21.092 22.9359 20.6214 22.463ZM18.8578 30.7692C19.346 30.2834 20.1356 30.2853 20.6214 30.7735C21.092 31.2465 21.1049 32.0022 20.6614 32.4907L20.6171 32.5371L17.8323 35.3083C17.361 35.7773 16.6083 35.792 16.1195 35.3523L16.073 35.3083L14.4238 33.6672C13.9356 33.1814 13.9337 32.3918 14.4195 31.9036C14.8902 31.4307 15.6459 31.4141 16.1365 31.8552L16.1831 31.8993L16.9526 32.6649L18.8578 30.7692ZM35.6709 16.5496C35.6709 17.2383 35.1126 17.7966 34.4239 17.7966H24.1711L24.1124 17.7952C23.451 17.7646 22.9242 17.2186 22.9242 16.5496C22.9242 15.8609 23.4825 15.3026 24.1711 15.3026H34.4239L34.4826 15.304C35.144 15.3347 35.6709 15.8806 35.6709 16.5496ZM34.4238 23.8947C35.1125 23.8947 35.6708 24.453 35.6708 25.1417C35.6708 25.8107 35.1439 26.3566 34.4825 26.3873L34.4238 26.3886H24.171C23.4824 26.3886 22.9241 25.8303 22.9241 25.1417C22.9241 24.4727 23.4509 23.9267 24.1123 23.8961L24.171 23.8947H34.4238ZM35.6718 33.4522C35.6718 32.7635 35.1135 32.2053 34.4248 32.2053H24.172L24.1133 32.2066C23.4519 32.2373 22.9251 32.7832 22.9251 33.4522C22.9251 34.1409 23.4833 34.6992 24.172 34.6992H34.4248L34.4835 34.6978C35.1449 34.6672 35.6718 34.1212 35.6718 33.4522Z" fill="white"/>
<rect x="0.5" y="0.5" width="49" height="49" rx="24.5" stroke="url(#paint1_linear_1799_13851)"/>
</g>
<defs>
<filter id="filter0_b_1799_13851" x="-50" y="-50" width="150" height="150" filterUnits="userSpaceOnUse" color-interpolation-filters="sRGB">
<feFlood flood-opacity="0" result="BackgroundImageFix"/>
<feGaussianBlur in="BackgroundImage" stdDeviation="25"/>
<feComposite in2="SourceAlpha" operator="in" result="effect1_backgroundBlur_1799_13851"/>
<feBlend mode="normal" in="SourceGraphic" in2="effect1_backgroundBlur_1799_13851" result="shape"/>
</filter>
<linearGradient id="paint0_linear_1799_13851" x1="25" y1="0" x2="25" y2="50" gradientUnits="userSpaceOnUse">
<stop stop-color="white" stop-opacity="0.38"/>
<stop offset="1" stop-color="white" stop-opacity="0.11"/>
</linearGradient>
<linearGradient id="paint1_linear_1799_13851" x1="25" y1="0" x2="25" y2="50" gradientUnits="userSpaceOnUse">
<stop offset="0.291667" stop-color="#97A0AF" stop-opacity="0.34"/>
<stop offset="1" stop-color="#A5ADBA" stop-opacity="0.81"/>
</linearGradient>
</defs>
</svg>
