<svg width="24" height="24" viewBox="0 0 24 24" fill="none" xmlns="http://www.w3.org/2000/svg">
<path fill-rule="evenodd" clip-rule="evenodd" d="M10.9951 14.9951L6.40205 10.4021C6.3086 10.3105 6.23422 10.2013 6.18324 10.0808C6.13225 9.96025 6.10565 9.83083 6.10499 9.69998C6.10433 9.56914 6.12962 9.43945 6.17939 9.31844C6.22915 9.19742 6.30242 9.08747 6.39494 8.99495C6.48747 8.90242 6.59742 8.82916 6.71843 8.77939C6.83945 8.72962 6.96913 8.70434 7.09998 8.705C7.23083 8.70566 7.36025 8.73225 7.48076 8.78324C7.60126 8.83423 7.71047 8.9086 7.80205 9.00206L11.7021 12.9021L15.6021 9.00205C15.7883 8.81949 16.0392 8.71782 16.3 8.71914C16.5608 8.72046 16.8106 8.82465 16.995 9.00909C17.1795 9.19353 17.2837 9.4433 17.285 9.70413C17.2863 9.96495 17.1846 10.2158 17.0021 10.4021L12.4101 14.9951C12.2225 15.1825 11.9682 15.2878 11.7031 15.2878C11.4379 15.2878 11.1836 15.1825 10.9961 14.9951L10.9951 14.9951Z" fill="white"/>
</svg>
