<svg width="40" height="40" viewBox="0 0 40 40" fill="none" xmlns="http://www.w3.org/2000/svg">
<path fill-rule="evenodd" clip-rule="evenodd" d="M6.66649 20.0001V8.33348C6.66123 8.11684 6.69953 7.90136 6.77912 7.69981C6.85871 7.49825 6.97797 7.31474 7.12983 7.16014C7.2824 7.00492 7.46419 6.88142 7.6647 6.79675C7.86522 6.71208 8.0805 6.66792 8.29816 6.66681H9.99983V21.6668H8.29983C8.08217 21.6657 7.86688 21.6215 7.66637 21.5369C7.46585 21.4522 7.28407 21.3287 7.13149 21.1735C6.97934 21.019 6.85977 20.8356 6.7799 20.634C6.70002 20.4325 6.66145 20.2169 6.66649 20.0001ZM32.1348 21.6001C31.6563 22.1571 31.0626 22.6037 30.3948 22.909C29.7269 23.2143 29.0008 23.371 28.2665 23.3685H23.8765C23.9432 23.6701 24.0098 23.9685 24.0598 24.2551C24.9182 29.1451 24.0598 30.9218 23.2198 31.9118C22.838 32.3591 22.3633 32.718 21.8289 32.9635C21.2944 33.209 20.713 33.3352 20.1248 33.3335C18.8854 33.2961 17.7015 32.8111 16.7921 31.9682C15.8827 31.1253 15.3093 29.9815 15.1782 28.7485C14.5232 25.6835 14.4215 25.4151 13.5648 24.2068L12.2848 22.3918C11.8948 21.8341 11.6837 21.1708 11.6798 20.4901V10.0351C11.6815 9.14848 12.0398 8.30014 12.6732 7.67514C13.3065 7.05014 14.1665 6.70015 15.0615 6.70181H27.1398C28.333 6.69155 29.4909 7.10635 30.4061 7.87194C31.3213 8.63754 31.9342 9.70392 32.1348 10.8801L33.2632 17.5468C33.3852 18.2638 33.3473 18.999 33.1523 19.6997C32.9572 20.4003 32.6098 21.0493 32.1348 21.6001ZM28.8048 11.4335C28.7369 11.0417 28.5321 10.6867 28.2269 10.4318C27.9216 10.1769 27.5358 10.0387 27.1382 10.0418H15.0632V20.4901L16.3415 22.3051C17.5425 24.0425 18.2886 26.0532 18.5115 28.1535C18.5715 29.0585 18.9365 30.1685 20.1265 30.0001C21.3165 29.8335 21.0848 26.8068 20.7315 24.8335C20.3724 23.1978 19.8888 21.592 19.2848 20.0301L28.2682 20.0435C28.7632 20.0451 29.2348 19.8301 29.5565 19.4568C29.7149 19.2725 29.8308 19.0555 29.8959 18.8213C29.961 18.5871 29.9737 18.3415 29.9332 18.1018L28.8065 11.4335H28.8048Z" fill="#79F2C0"/>
</svg>
