<svg width="24" height="24" viewBox="0 0 24 24" fill="none" xmlns="http://www.w3.org/2000/svg">
<path d="M11.9999 10.5856L6.70692 5.29259C6.51832 5.11044 6.26571 5.00964 6.00352 5.01192C5.74132 5.0142 5.49051 5.11937 5.3051 5.30477C5.11969 5.49018 5.01452 5.74099 5.01224 6.00319C5.00997 6.26539 5.11076 6.51799 5.29292 6.70659L10.5859 11.9996L5.29292 17.2926C5.11076 17.4812 5.00997 17.7338 5.01224 17.996C5.01452 18.2582 5.11969 18.509 5.3051 18.6944C5.49051 18.8798 5.74132 18.985 6.00352 18.9873C6.26571 18.9895 6.51832 18.8888 6.70692 18.7066L11.9999 13.4136L17.2929 18.7066C17.4815 18.8888 17.7341 18.9895 17.9963 18.9873C18.2585 18.985 18.5093 18.8798 18.6947 18.6944C18.8801 18.509 18.9853 18.2582 18.9876 17.996C18.9899 17.7338 18.8891 17.4812 18.7069 17.2926L13.4139 11.9996L18.7069 6.70659C18.8024 6.61435 18.8786 6.504 18.931 6.382C18.9834 6.25999 19.011 6.12877 19.0122 5.99599C19.0133 5.86321 18.988 5.73154 18.9377 5.60864C18.8875 5.48574 18.8132 5.37409 18.7193 5.2802C18.6254 5.18631 18.5138 5.11205 18.3909 5.06177C18.268 5.01149 18.1363 4.98619 18.0035 4.98734C17.8707 4.9885 17.7395 5.01608 17.6175 5.06849C17.4955 5.1209 17.3852 5.19708 17.2929 5.29259L11.9999 10.5856Z" fill="#57D9A3"/>
</svg>
