<svg width="40" height="40" viewBox="0 0 40 40" fill="none" xmlns="http://www.w3.org/2000/svg">
<path fill-rule="evenodd" clip-rule="evenodd" d="M6.66649 19.9999V31.6665C6.66123 31.8832 6.69953 32.0986 6.77912 32.3002C6.85871 32.5017 6.97797 32.6853 7.12983 32.8399C7.2824 32.9951 7.46419 33.1186 7.6647 33.2033C7.86522 33.2879 8.0805 33.3321 8.29816 33.3332H9.99983V18.3332H8.29983C8.08217 18.3343 7.86688 18.3785 7.66637 18.4631C7.46585 18.5478 7.28407 18.6713 7.13149 18.8265C6.97934 18.981 6.85977 19.1644 6.7799 19.366C6.70002 19.5675 6.66145 19.7831 6.66649 19.9999ZM32.1348 18.3999C31.6563 17.8429 31.0626 17.3963 30.3948 17.091C29.7269 16.7857 29.0008 16.629 28.2665 16.6315H23.8765C23.9432 16.3299 24.0098 16.0315 24.0598 15.7449C24.9182 10.8549 24.0598 9.07819 23.2198 8.08819C22.838 7.64087 22.3633 7.282 21.8289 7.0365C21.2944 6.79101 20.713 6.66476 20.1248 6.66652C18.8854 6.70388 17.7015 7.18888 16.7921 8.0318C15.8827 8.87472 15.3093 10.0185 15.1782 11.2515C14.5232 14.3165 14.4215 14.5849 13.5648 15.7932L12.2848 17.6082C11.8948 18.1659 11.6837 18.8292 11.6798 19.5099V29.9649C11.6815 30.8515 12.0398 31.6999 12.6732 32.3249C13.3065 32.9499 14.1665 33.2999 15.0615 33.2982H27.1398C28.333 33.3085 29.4909 32.8937 30.4061 32.1281C31.3213 31.3625 31.9342 30.2961 32.1348 29.1199L33.2632 22.4532C33.3852 21.7362 33.3473 21.001 33.1523 20.3003C32.9572 19.5997 32.6098 18.9507 32.1348 18.3999ZM28.8048 28.5665C28.7369 28.9583 28.5321 29.3133 28.2269 29.5682C27.9216 29.8231 27.5358 29.9613 27.1382 29.9582H15.0632V19.5099L16.3415 17.6949C17.5425 15.9575 18.2886 13.9468 18.5115 11.8465C18.5715 10.9415 18.9365 9.83152 20.1265 9.99986C21.3165 10.1665 21.0848 13.1932 20.7315 15.1665C20.3724 16.8022 19.8888 18.408 19.2848 19.9699L28.2682 19.9565C28.7632 19.9549 29.2348 20.1699 29.5565 20.5432C29.7149 20.7275 29.8308 20.9445 29.8959 21.1787C29.961 21.4129 29.9737 21.6585 29.9332 21.8982L28.8065 28.5665H28.8048Z" fill="#79F2C0"/>
</svg>
